<svg xmlns="http://www.w3.org/2000/svg" xmlns:xlink="http://www.w3.org/1999/xlink" width="440" zoomAndPan="magnify" viewBox="0 0 330 374.999991" height="500" preserveAspectRatio="xMidYMid meet" version="1.0"><path fill="#1d1b19" d="M 128.519531 17.335938 C 90.957031 17.335938 60.402344 47.890625 60.402344 85.445312 C 60.402344 123.007812 90.957031 153.5625 128.519531 153.5625 C 166.078125 153.5625 196.636719 123.007812 196.636719 85.445312 C 196.636719 47.890625 166.078125 17.335938 128.519531 17.335938 Z M 128.519531 170.902344 C 81.398438 170.902344 43.0625 132.566406 43.0625 85.445312 C 43.0625 38.335938 81.398438 -0.00390625 128.519531 -0.00390625 C 175.644531 -0.00390625 213.976562 38.335938 213.976562 85.445312 C 213.976562 132.566406 175.644531 170.902344 128.519531 170.902344 " fill-opacity="1" fill-rule="nonzero"/><path fill="#1d1b19" d="M 9.929688 253.9375 C 8.945312 253.9375 7.945312 253.769531 6.964844 253.414062 C 2.460938 251.777344 0.140625 246.800781 1.785156 242.304688 C 21.085938 189.222656 72.019531 153.5625 128.519531 153.5625 C 168.058594 153.5625 205.445312 170.832031 231.128906 200.9375 C 234.226562 204.578125 233.789062 210.046875 230.148438 213.160156 C 226.527344 216.265625 221.054688 215.832031 217.925781 212.183594 C 195.558594 185.949219 162.976562 170.902344 128.519531 170.902344 C 79.28125 170.902344 34.902344 201.980469 18.074219 248.230469 C 16.792969 251.753906 13.464844 253.9375 9.929688 253.9375 " fill-opacity="1" fill-rule="nonzero"/><path fill="#1d1b19" d="M 248.992188 230.636719 C 213.976562 230.636719 185.480469 259.125 185.480469 294.148438 C 185.480469 329.175781 213.976562 357.664062 248.992188 357.664062 C 284.011719 357.664062 312.507812 329.175781 312.507812 294.148438 C 312.507812 259.125 284.011719 230.636719 248.992188 230.636719 Z M 248.992188 375.003906 C 204.410156 375.003906 168.140625 338.734375 168.140625 294.148438 C 168.140625 249.570312 204.410156 213.300781 248.992188 213.300781 C 293.574219 213.300781 329.84375 249.570312 329.84375 294.148438 C 329.84375 338.734375 293.574219 375.003906 248.992188 375.003906 " fill-opacity="1" fill-rule="nonzero"/><path fill="#1d1b19" d="M 241.832031 321.929688 L 259.664062 321.929688 L 259.664062 304.117188 L 241.832031 304.117188 Z M 268.332031 339.269531 L 233.164062 339.269531 C 228.371094 339.269531 224.496094 335.386719 224.496094 330.597656 L 224.496094 295.445312 C 224.496094 290.65625 228.371094 286.777344 233.164062 286.777344 L 268.332031 286.777344 C 273.121094 286.777344 277 290.65625 277 295.445312 L 277 330.597656 C 277 335.386719 273.121094 339.269531 268.332031 339.269531 " fill-opacity="1" fill-rule="nonzero"/><path fill="#1d1b19" d="M 267.042969 295.734375 C 262.253906 295.734375 258.371094 291.859375 258.371094 287.0625 C 258.371094 282.859375 254.953125 279.4375 250.753906 279.4375 C 246.539062 279.4375 243.117188 282.859375 243.117188 287.0625 C 243.117188 291.859375 239.242188 295.734375 234.449219 295.734375 C 229.65625 295.734375 225.78125 291.859375 225.78125 287.0625 C 225.78125 273.300781 236.988281 262.097656 250.753906 262.097656 C 264.523438 262.097656 275.710938 273.300781 275.710938 287.0625 C 275.710938 291.859375 271.832031 295.734375 267.042969 295.734375 " fill-opacity="1" fill-rule="nonzero"/></svg>