<svg xmlns="http://www.w3.org/2000/svg" xmlns:xlink="http://www.w3.org/1999/xlink" width="466" zoomAndPan="magnify" viewBox="0 0 349.5 374.999991" height="500" preserveAspectRatio="xMidYMid meet" version="1.0"><defs><clipPath id="0c7460b9a4"><path d="M 0 0.585938 L 349 0.585938 L 349 374.730469 L 0 374.730469 Z M 0 0.585938 " clip-rule="nonzero"/></clipPath></defs><g clip-path="url(#0c7460b9a4)"><path fill="#040606" d="M 188.785156 178.460938 L 309.433594 178.460938 L 309.433594 356.238281 L 188.785156 356.238281 Z M 40.105469 178.460938 L 160.71875 178.460938 L 160.71875 356.238281 L 40.105469 356.238281 Z M 188.785156 109.929688 L 330.988281 109.929688 L 330.988281 163.039062 L 188.785156 163.039062 Z M 18.546875 109.929688 L 160.71875 109.929688 L 160.71875 163.039062 L 18.546875 163.039062 Z M 69.238281 29.003906 C 73.15625 29.101562 77.074219 29.601562 80.894531 30.5 C 115.042969 39.9375 144.574219 61.507812 163.972656 91.21875 L 56.78125 91.21875 C 39.242188 87.730469 26.617188 72.34375 26.585938 54.460938 C 26.585938 48.179688 29.742188 42.332031 34.957031 38.839844 C 45.085938 32.09375 57.078125 28.636719 69.238281 29.003906 Z M 281.230469 28.96875 C 293.089844 28.835938 304.714844 32.261719 314.582031 38.839844 C 319.796875 42.332031 322.917969 48.179688 322.917969 54.460938 C 322.882812 72.34375 310.261719 87.730469 292.722656 91.21875 L 185.5625 91.21875 C 204.929688 61.507812 234.460938 39.9375 268.609375 30.5 C 272.757812 29.535156 276.976562 29.035156 281.230469 28.96875 Z M 129.757812 0.585938 C 125.90625 0.585938 122.75 3.746094 122.75 7.632812 C 122.75 9.695312 123.679688 11.65625 125.242188 12.984375 C 138.726562 24.351562 149.023438 39.039062 155.136719 55.589844 C 155.304688 56.089844 155.070312 56.621094 154.574219 56.789062 C 154.238281 56.921875 153.839844 56.855469 153.609375 56.589844 C 134.242188 37.710938 110.425781 24.050781 84.382812 16.871094 C 64.6875 12.21875 43.992188 15.941406 27.152344 27.140625 C 18.015625 33.257812 12.566406 43.492188 12.566406 54.460938 C 12.566406 68.289062 18.148438 81.515625 27.980469 91.21875 L 9.179688 91.21875 C 3.996094 91.21875 -0.1875 95.40625 -0.1875 100.59375 L -0.1875 181.421875 C -0.1875 186.570312 3.996094 190.792969 9.179688 190.792969 L 21.371094 190.792969 L 21.371094 365.578125 C 21.371094 370.761719 25.554688 374.949219 30.738281 374.949219 L 318.800781 374.949219 C 323.949219 374.949219 328.167969 370.761719 328.167969 365.578125 L 328.167969 190.792969 L 340.324219 190.792969 C 345.503906 190.792969 349.691406 186.570312 349.691406 181.421875 L 349.691406 100.59375 C 349.691406 95.40625 345.503906 91.21875 340.324219 91.21875 L 321.523438 91.21875 C 331.386719 81.515625 336.9375 68.289062 336.96875 54.460938 C 336.96875 43.492188 331.488281 33.257812 322.351562 27.140625 C 305.546875 15.941406 284.816406 12.21875 265.152344 16.871094 C 239.078125 24.050781 215.261719 37.710938 195.929688 56.589844 C 195.53125 56.953125 194.964844 56.921875 194.597656 56.554688 C 194.332031 56.289062 194.265625 55.921875 194.398438 55.589844 C 200.480469 39.039062 210.777344 24.351562 224.261719 12.984375 C 227.21875 10.457031 227.550781 6.039062 225.027344 3.078125 C 222.535156 0.15625 218.183594 -0.210938 215.226562 2.25 C 194.234375 19.929688 180.214844 44.492188 175.664062 71.578125 C 175.597656 72.109375 175.101562 72.441406 174.601562 72.34375 C 174.203125 72.277344 173.90625 71.976562 173.839844 71.578125 C 169.289062 44.492188 155.269531 19.929688 134.277344 2.25 C 133.015625 1.183594 131.417969 0.585938 129.757812 0.585938 " fill-opacity="1" fill-rule="nonzero"/></g></svg>