<svg xmlns="http://www.w3.org/2000/svg" xmlns:xlink="http://www.w3.org/1999/xlink" width="349" zoomAndPan="magnify" viewBox="0 0 261.75 186.749996" height="249" preserveAspectRatio="xMidYMid meet" version="1.0"><defs><clipPath id="9cb0540204"><path d="M 28 121 L 95 121 L 95 186.5 L 28 186.5 Z M 28 121 " clip-rule="nonzero"/></clipPath><clipPath id="8e1c1f9b16"><path d="M 168 121 L 234 121 L 234 186.5 L 168 186.5 Z M 168 121 " clip-rule="nonzero"/></clipPath><clipPath id="4b97862616"><path d="M 0.0507812 0.195312 L 188 0.195312 L 188 150 L 0.0507812 150 Z M 0.0507812 0.195312 " clip-rule="nonzero"/></clipPath><clipPath id="e0e917eda7"><path d="M 140 28 L 261.449219 28 L 261.449219 150 L 140 150 Z M 140 28 " clip-rule="nonzero"/></clipPath><clipPath id="7279a37423"><path d="M 0.0507812 28 L 123 28 L 123 47 L 0.0507812 47 Z M 0.0507812 28 " clip-rule="nonzero"/></clipPath><clipPath id="3973780d22"><path d="M 0.0507812 56 L 113 56 L 113 75 L 0.0507812 75 Z M 0.0507812 56 " clip-rule="nonzero"/></clipPath><clipPath id="93c7c42f9c"><path d="M 0.0507812 84 L 104 84 L 104 103 L 0.0507812 103 Z M 0.0507812 84 " clip-rule="nonzero"/></clipPath></defs><g clip-path="url(#9cb0540204)"><path fill="#000000" d="M 61.503906 186.746094 C 60.4375 186.746094 59.375 186.695312 58.3125 186.589844 C 57.25 186.484375 56.195312 186.328125 55.148438 186.117188 C 54.101562 185.910156 53.066406 185.652344 52.042969 185.339844 C 51.023438 185.03125 50.019531 184.671875 49.035156 184.261719 C 48.046875 183.855469 47.082031 183.398438 46.140625 182.894531 C 45.203125 182.390625 44.285156 181.839844 43.398438 181.246094 C 42.511719 180.652344 41.65625 180.019531 40.832031 179.339844 C 40.003906 178.664062 39.214844 177.945312 38.460938 177.191406 C 37.707031 176.433594 36.988281 175.644531 36.3125 174.816406 C 35.636719 173.992188 35 173.136719 34.40625 172.246094 C 33.816406 171.359375 33.265625 170.441406 32.761719 169.5 C 32.261719 168.558594 31.804688 167.59375 31.394531 166.605469 C 30.988281 165.617188 30.628906 164.613281 30.320312 163.59375 C 30.007812 162.570312 29.75 161.535156 29.542969 160.484375 C 29.332031 159.4375 29.175781 158.382812 29.074219 157.320312 C 28.96875 156.253906 28.914062 155.191406 28.914062 154.121094 C 28.914062 153.054688 28.96875 151.988281 29.074219 150.921875 C 29.175781 149.859375 29.332031 148.804688 29.542969 147.757812 C 29.75 146.707031 30.007812 145.671875 30.320312 144.652344 C 30.628906 143.628906 30.988281 142.625 31.394531 141.636719 C 31.804688 140.648438 32.261719 139.683594 32.761719 138.742188 C 33.265625 137.800781 33.816406 136.882812 34.40625 135.996094 C 35 135.109375 35.636719 134.25 36.3125 133.425781 C 36.988281 132.597656 37.707031 131.808594 38.460938 131.050781 C 39.214844 130.296875 40.003906 129.578125 40.832031 128.902344 C 41.65625 128.222656 42.511719 127.589844 43.398438 126.996094 C 44.285156 126.402344 45.203125 125.851562 46.140625 125.347656 C 47.082031 124.84375 48.046875 124.390625 49.035156 123.980469 C 50.019531 123.570312 51.023438 123.210938 52.042969 122.902344 C 53.066406 122.589844 54.101562 122.332031 55.148438 122.125 C 56.195312 121.914062 57.25 121.757812 58.3125 121.652344 C 59.375 121.550781 60.4375 121.496094 61.503906 121.496094 C 62.574219 121.496094 63.636719 121.550781 64.699219 121.652344 C 65.761719 121.757812 66.816406 121.914062 67.863281 122.125 C 68.910156 122.332031 69.945312 122.589844 70.964844 122.902344 C 71.988281 123.210938 72.992188 123.570312 73.976562 123.980469 C 74.964844 124.390625 75.925781 124.84375 76.867188 125.347656 C 77.808594 125.851562 78.722656 126.402344 79.609375 126.996094 C 80.5 127.589844 81.355469 128.222656 82.179688 128.902344 C 83.003906 129.578125 83.796875 130.296875 84.550781 131.050781 C 85.304688 131.808594 86.019531 132.597656 86.699219 133.425781 C 87.375 134.25 88.007812 135.109375 88.601562 135.996094 C 89.195312 136.882812 89.742188 137.800781 90.246094 138.742188 C 90.75 139.683594 91.207031 140.648438 91.613281 141.636719 C 92.023438 142.625 92.382812 143.628906 92.691406 144.652344 C 93 145.671875 93.261719 146.707031 93.46875 147.757812 C 93.675781 148.804688 93.832031 149.859375 93.9375 150.921875 C 94.042969 151.988281 94.09375 153.054688 94.09375 154.121094 C 94.09375 155.191406 94.042969 156.253906 93.9375 157.320312 C 93.832031 158.382812 93.675781 159.4375 93.46875 160.484375 C 93.261719 161.535156 93 162.570312 92.691406 163.589844 C 92.382812 164.613281 92.023438 165.617188 91.613281 166.605469 C 91.207031 167.59375 90.75 168.558594 90.246094 169.5 C 89.742188 170.441406 89.195312 171.359375 88.601562 172.246094 C 88.007812 173.136719 87.375 173.992188 86.699219 174.816406 C 86.019531 175.644531 85.304688 176.433594 84.550781 177.191406 C 83.796875 177.945312 83.003906 178.664062 82.179688 179.339844 C 81.355469 180.019531 80.5 180.652344 79.609375 181.246094 C 78.722656 181.839844 77.808594 182.390625 76.867188 182.894531 C 75.925781 183.398438 74.964844 183.855469 73.976562 184.261719 C 72.992188 184.671875 71.988281 185.03125 70.964844 185.339844 C 69.945312 185.652344 68.910156 185.910156 67.863281 186.117188 C 66.816406 186.328125 65.761719 186.484375 64.699219 186.589844 C 63.636719 186.695312 62.574219 186.746094 61.503906 186.746094 Z M 61.503906 140.140625 C 60.589844 140.140625 59.679688 140.230469 58.78125 140.40625 C 57.882812 140.585938 57.007812 140.851562 56.160156 141.203125 C 55.3125 141.554688 54.507812 141.984375 53.746094 142.496094 C 52.984375 143.003906 52.277344 143.585938 51.628906 144.234375 C 50.980469 144.882812 50.402344 145.589844 49.890625 146.351562 C 49.382812 147.117188 48.953125 147.921875 48.601562 148.769531 C 48.25 149.617188 47.984375 150.492188 47.804688 151.394531 C 47.628906 152.292969 47.539062 153.203125 47.539062 154.121094 C 47.539062 155.039062 47.628906 155.949219 47.804688 156.847656 C 47.984375 157.75 48.25 158.625 48.601562 159.472656 C 48.953125 160.320312 49.382812 161.125 49.890625 161.890625 C 50.402344 162.652344 50.980469 163.359375 51.628906 164.007812 C 52.277344 164.65625 52.984375 165.238281 53.746094 165.746094 C 54.507812 166.257812 55.3125 166.6875 56.160156 167.039062 C 57.007812 167.390625 57.882812 167.65625 58.78125 167.835938 C 59.679688 168.015625 60.589844 168.101562 61.503906 168.101562 C 62.421875 168.101562 63.332031 168.015625 64.230469 167.835938 C 65.128906 167.65625 66.003906 167.390625 66.851562 167.039062 C 67.699219 166.6875 68.503906 166.257812 69.265625 165.746094 C 70.027344 165.238281 70.734375 164.65625 71.382812 164.007812 C 72.03125 163.359375 72.609375 162.652344 73.117188 161.890625 C 73.628906 161.125 74.058594 160.320312 74.410156 159.472656 C 74.761719 158.625 75.023438 157.75 75.203125 156.847656 C 75.382812 155.949219 75.472656 155.039062 75.472656 154.121094 C 75.472656 153.203125 75.382812 152.292969 75.203125 151.394531 C 75.023438 150.492188 74.761719 149.617188 74.410156 148.769531 C 74.058594 147.921875 73.628906 147.117188 73.117188 146.351562 C 72.609375 145.589844 72.03125 144.882812 71.382812 144.234375 C 70.734375 143.585938 70.027344 143.003906 69.265625 142.496094 C 68.503906 141.984375 67.699219 141.554688 66.851562 141.203125 C 66.003906 140.851562 65.128906 140.585938 64.230469 140.40625 C 63.332031 140.230469 62.421875 140.140625 61.503906 140.140625 Z M 61.503906 140.140625 " fill-opacity="1" fill-rule="nonzero"/></g><g clip-path="url(#8e1c1f9b16)"><path fill="#000000" d="M 201.175781 186.746094 C 200.109375 186.746094 199.042969 186.695312 197.980469 186.589844 C 196.917969 186.484375 195.863281 186.328125 194.816406 186.117188 C 193.769531 185.910156 192.738281 185.652344 191.714844 185.339844 C 190.695312 185.03125 189.691406 184.671875 188.703125 184.261719 C 187.71875 183.855469 186.753906 183.398438 185.8125 182.894531 C 184.871094 182.390625 183.957031 181.839844 183.070312 181.246094 C 182.183594 180.652344 181.328125 180.019531 180.5 179.339844 C 179.675781 178.664062 178.886719 177.945312 178.132812 177.191406 C 177.375 176.433594 176.660156 175.644531 175.984375 174.816406 C 175.304688 173.992188 174.671875 173.136719 174.078125 172.246094 C 173.484375 171.359375 172.9375 170.441406 172.433594 169.5 C 171.929688 168.558594 171.476562 167.59375 171.066406 166.605469 C 170.660156 165.617188 170.300781 164.613281 169.988281 163.59375 C 169.679688 162.570312 169.421875 161.535156 169.210938 160.484375 C 169.003906 159.4375 168.847656 158.382812 168.742188 157.320312 C 168.636719 156.253906 168.585938 155.191406 168.585938 154.121094 C 168.585938 153.054688 168.636719 151.988281 168.742188 150.921875 C 168.847656 149.859375 169.003906 148.804688 169.210938 147.757812 C 169.421875 146.707031 169.679688 145.671875 169.988281 144.652344 C 170.300781 143.628906 170.660156 142.625 171.066406 141.636719 C 171.476562 140.648438 171.929688 139.683594 172.433594 138.742188 C 172.9375 137.800781 173.484375 136.882812 174.078125 135.996094 C 174.671875 135.109375 175.304688 134.25 175.984375 133.425781 C 176.660156 132.597656 177.375 131.808594 178.132812 131.050781 C 178.886719 130.296875 179.675781 129.578125 180.5 128.902344 C 181.328125 128.222656 182.183594 127.589844 183.070312 126.996094 C 183.957031 126.402344 184.871094 125.851562 185.8125 125.347656 C 186.753906 124.84375 187.71875 124.390625 188.703125 123.980469 C 189.691406 123.570312 190.695312 123.210938 191.714844 122.902344 C 192.738281 122.589844 193.769531 122.332031 194.816406 122.125 C 195.863281 121.914062 196.917969 121.757812 197.980469 121.652344 C 199.042969 121.550781 200.109375 121.496094 201.175781 121.496094 C 202.242188 121.496094 203.308594 121.550781 204.371094 121.652344 C 205.433594 121.757812 206.488281 121.914062 207.535156 122.125 C 208.582031 122.332031 209.613281 122.589844 210.636719 122.902344 C 211.65625 123.210938 212.660156 123.570312 213.648438 123.980469 C 214.632812 124.390625 215.597656 124.84375 216.539062 125.347656 C 217.480469 125.851562 218.394531 126.402344 219.28125 126.996094 C 220.167969 127.589844 221.027344 128.222656 221.851562 128.902344 C 222.675781 129.578125 223.464844 130.296875 224.21875 131.050781 C 224.976562 131.808594 225.691406 132.597656 226.367188 133.425781 C 227.046875 134.25 227.679688 135.109375 228.273438 135.996094 C 228.867188 136.882812 229.414062 137.800781 229.917969 138.742188 C 230.421875 139.683594 230.875 140.648438 231.285156 141.636719 C 231.695312 142.625 232.050781 143.628906 232.363281 144.652344 C 232.671875 145.671875 232.929688 146.707031 233.140625 147.757812 C 233.347656 148.804688 233.503906 149.859375 233.609375 150.921875 C 233.714844 151.988281 233.765625 153.054688 233.765625 154.121094 C 233.765625 155.191406 233.714844 156.253906 233.609375 157.320312 C 233.503906 158.382812 233.347656 159.4375 233.140625 160.484375 C 232.929688 161.535156 232.671875 162.570312 232.363281 163.59375 C 232.050781 164.613281 231.695312 165.617188 231.285156 166.605469 C 230.875 167.59375 230.421875 168.558594 229.917969 169.5 C 229.414062 170.441406 228.867188 171.359375 228.273438 172.246094 C 227.679688 173.136719 227.046875 173.992188 226.367188 174.816406 C 225.691406 175.644531 224.976562 176.433594 224.21875 177.191406 C 223.464844 177.945312 222.675781 178.664062 221.851562 179.339844 C 221.027344 180.019531 220.167969 180.652344 219.28125 181.246094 C 218.394531 181.839844 217.480469 182.390625 216.539062 182.894531 C 215.597656 183.398438 214.632812 183.855469 213.648438 184.261719 C 212.660156 184.671875 211.65625 185.03125 210.636719 185.339844 C 209.613281 185.652344 208.582031 185.910156 207.535156 186.117188 C 206.488281 186.328125 205.433594 186.484375 204.371094 186.589844 C 203.308594 186.695312 202.242188 186.746094 201.175781 186.746094 Z M 201.175781 140.140625 C 200.257812 140.140625 199.351562 140.230469 198.449219 140.40625 C 197.550781 140.585938 196.679688 140.851562 195.832031 141.203125 C 194.984375 141.554688 194.179688 141.984375 193.417969 142.496094 C 192.652344 143.003906 191.949219 143.585938 191.300781 144.234375 C 190.652344 144.882812 190.070312 145.589844 189.5625 146.351562 C 189.054688 147.117188 188.621094 147.921875 188.273438 148.769531 C 187.921875 149.617188 187.65625 150.492188 187.476562 151.394531 C 187.296875 152.292969 187.207031 153.203125 187.207031 154.121094 C 187.207031 155.039062 187.296875 155.949219 187.476562 156.847656 C 187.65625 157.75 187.921875 158.625 188.273438 159.472656 C 188.621094 160.320312 189.054688 161.125 189.5625 161.890625 C 190.070312 162.652344 190.652344 163.359375 191.300781 164.007812 C 191.949219 164.65625 192.652344 165.238281 193.417969 165.746094 C 194.179688 166.257812 194.984375 166.6875 195.832031 167.039062 C 196.679688 167.390625 197.550781 167.65625 198.449219 167.835938 C 199.351562 168.015625 200.257812 168.101562 201.175781 168.101562 C 202.09375 168.101562 203 168.015625 203.902344 167.835938 C 204.800781 167.65625 205.671875 167.390625 206.519531 167.039062 C 207.367188 166.6875 208.171875 166.257812 208.9375 165.746094 C 209.699219 165.238281 210.402344 164.65625 211.050781 164.007812 C 211.699219 163.359375 212.28125 162.652344 212.789062 161.890625 C 213.296875 161.125 213.730469 160.320312 214.078125 159.472656 C 214.429688 158.625 214.695312 157.75 214.875 156.847656 C 215.054688 155.949219 215.144531 155.039062 215.144531 154.121094 C 215.144531 153.203125 215.054688 152.292969 214.875 151.394531 C 214.695312 150.492188 214.429688 149.617188 214.078125 148.769531 C 213.730469 147.921875 213.296875 147.117188 212.789062 146.351562 C 212.28125 145.589844 211.699219 144.882812 211.050781 144.234375 C 210.402344 143.585938 209.699219 143.003906 208.9375 142.496094 C 208.171875 141.984375 207.367188 141.554688 206.519531 141.203125 C 205.671875 140.851562 204.800781 140.585938 203.902344 140.40625 C 203 140.230469 202.09375 140.140625 201.175781 140.140625 Z M 201.175781 140.140625 " fill-opacity="1" fill-rule="nonzero"/></g><g clip-path="url(#4b97862616)"><path fill="#000000" d="M 149.964844 149.460938 L 120.910156 149.460938 C 120.300781 149.460938 119.695312 149.402344 119.09375 149.28125 C 118.496094 149.164062 117.914062 148.984375 117.347656 148.75 C 116.785156 148.515625 116.246094 148.230469 115.738281 147.890625 C 115.230469 147.550781 114.761719 147.164062 114.328125 146.730469 C 113.894531 146.296875 113.507812 145.828125 113.167969 145.316406 C 112.828125 144.808594 112.542969 144.273438 112.308594 143.707031 C 112.074219 143.140625 111.898438 142.558594 111.78125 141.957031 C 111.660156 141.359375 111.601562 140.75 111.601562 140.140625 C 111.601562 139.527344 111.660156 138.921875 111.78125 138.320312 C 111.898438 137.71875 112.074219 137.136719 112.308594 136.570312 C 112.542969 136.007812 112.828125 135.46875 113.167969 134.960938 C 113.507812 134.453125 113.894531 133.980469 114.328125 133.546875 C 114.761719 133.117188 115.230469 132.730469 115.738281 132.390625 C 116.246094 132.050781 116.785156 131.761719 117.347656 131.527344 C 117.914062 131.292969 118.496094 131.117188 119.09375 130.996094 C 119.695312 130.878906 120.300781 130.816406 120.910156 130.816406 L 142.421875 130.816406 L 166.351562 18.960938 L 45.304688 18.960938 L 21.839844 130.816406 L 28.078125 130.816406 C 28.6875 130.816406 29.292969 130.878906 29.894531 130.996094 C 30.492188 131.117188 31.074219 131.292969 31.640625 131.527344 C 32.207031 131.761719 32.742188 132.050781 33.25 132.390625 C 33.757812 132.730469 34.230469 133.117188 34.660156 133.546875 C 35.09375 133.980469 35.480469 134.453125 35.820312 134.960938 C 36.160156 135.46875 36.445312 136.007812 36.679688 136.570312 C 36.914062 137.136719 37.089844 137.71875 37.210938 138.320312 C 37.328125 138.921875 37.390625 139.527344 37.390625 140.140625 C 37.390625 140.75 37.328125 141.359375 37.210938 141.957031 C 37.089844 142.558594 36.914062 143.140625 36.679688 143.707031 C 36.445312 144.273438 36.160156 144.808594 35.820312 145.316406 C 35.480469 145.828125 35.09375 146.296875 34.660156 146.730469 C 34.230469 147.164062 33.757812 147.550781 33.25 147.890625 C 32.742188 148.230469 32.207031 148.515625 31.640625 148.75 C 31.074219 148.984375 30.492188 149.164062 29.894531 149.28125 C 29.292969 149.402344 28.6875 149.460938 28.078125 149.460938 L 10.292969 149.460938 C 9.941406 149.46875 9.59375 149.457031 9.242188 149.425781 C 8.894531 149.394531 8.546875 149.34375 8.203125 149.269531 C 7.863281 149.199219 7.523438 149.109375 7.191406 149 C 6.855469 148.890625 6.53125 148.765625 6.210938 148.617188 C 5.894531 148.472656 5.582031 148.308594 5.285156 148.128906 C 4.984375 147.949219 4.695312 147.75 4.414062 147.535156 C 4.136719 147.324219 3.871094 147.09375 3.621094 146.851562 C 3.367188 146.605469 3.128906 146.351562 2.90625 146.078125 C 2.683594 145.808594 2.476562 145.527344 2.285156 145.234375 C 2.09375 144.9375 1.917969 144.636719 1.761719 144.320312 C 1.605469 144.007812 1.464844 143.6875 1.34375 143.359375 C 1.222656 143.027344 1.121094 142.691406 1.039062 142.351562 C 0.957031 142.011719 0.890625 141.667969 0.847656 141.320312 C 0.804688 140.96875 0.777344 140.621094 0.773438 140.269531 C 0.769531 139.917969 0.785156 139.570312 0.820312 139.21875 C 0.851562 138.871094 0.90625 138.523438 0.980469 138.183594 L 28.914062 7.683594 C 29.027344 7.15625 29.183594 6.644531 29.386719 6.144531 C 29.585938 5.648438 29.832031 5.167969 30.113281 4.714844 C 30.398438 4.257812 30.71875 3.828125 31.078125 3.425781 C 31.4375 3.023438 31.824219 2.65625 32.246094 2.324219 C 32.667969 1.992188 33.117188 1.695312 33.589844 1.441406 C 34.0625 1.183594 34.554688 0.972656 35.0625 0.800781 C 35.570312 0.628906 36.09375 0.503906 36.625 0.421875 C 37.15625 0.34375 37.691406 0.308594 38.226562 0.320312 L 177.898438 0.320312 C 178.246094 0.3125 178.597656 0.324219 178.945312 0.355469 C 179.296875 0.386719 179.640625 0.4375 179.984375 0.507812 C 180.328125 0.578125 180.667969 0.671875 181 0.777344 C 181.332031 0.886719 181.660156 1.015625 181.976562 1.160156 C 182.296875 1.308594 182.605469 1.472656 182.90625 1.652344 C 183.207031 1.832031 183.496094 2.03125 183.773438 2.242188 C 184.050781 2.457031 184.316406 2.6875 184.570312 2.929688 C 184.820312 3.171875 185.058594 3.429688 185.28125 3.699219 C 185.507812 3.972656 185.714844 4.253906 185.90625 4.546875 C 186.097656 4.839844 186.269531 5.144531 186.429688 5.457031 C 186.585938 5.773438 186.722656 6.09375 186.84375 6.421875 C 186.964844 6.753906 187.066406 7.085938 187.152344 7.429688 C 187.234375 7.769531 187.296875 8.113281 187.34375 8.460938 C 187.386719 8.808594 187.410156 9.160156 187.417969 9.511719 C 187.421875 9.859375 187.40625 10.210938 187.371094 10.558594 C 187.335938 10.910156 187.28125 11.253906 187.207031 11.597656 L 159.273438 142.097656 C 159.160156 142.621094 159.003906 143.136719 158.804688 143.632812 C 158.601562 144.132812 158.359375 144.609375 158.074219 145.066406 C 157.792969 145.523438 157.46875 145.953125 157.113281 146.355469 C 156.753906 146.753906 156.363281 147.121094 155.941406 147.457031 C 155.519531 147.789062 155.074219 148.085938 154.601562 148.339844 C 154.128906 148.597656 153.636719 148.808594 153.128906 148.980469 C 152.617188 149.152344 152.097656 149.277344 151.566406 149.359375 C 151.035156 149.4375 150.5 149.472656 149.964844 149.460938 Z M 149.964844 149.460938 " fill-opacity="1" fill-rule="nonzero"/></g><path fill="#000000" d="M 120.820312 149.460938 L 80.128906 149.460938 C 79.515625 149.460938 78.910156 149.402344 78.3125 149.28125 C 77.710938 149.164062 77.128906 148.984375 76.566406 148.75 C 76 148.515625 75.464844 148.230469 74.953125 147.890625 C 74.445312 147.550781 73.976562 147.164062 73.542969 146.730469 C 73.113281 146.296875 72.726562 145.828125 72.386719 145.316406 C 72.046875 144.808594 71.757812 144.273438 71.523438 143.707031 C 71.292969 143.140625 71.113281 142.558594 70.996094 141.957031 C 70.875 141.359375 70.816406 140.75 70.816406 140.140625 C 70.816406 139.527344 70.875 138.921875 70.996094 138.320312 C 71.113281 137.71875 71.292969 137.136719 71.523438 136.570312 C 71.757812 136.007812 72.046875 135.46875 72.386719 134.960938 C 72.726562 134.453125 73.113281 133.980469 73.542969 133.546875 C 73.976562 133.117188 74.445312 132.730469 74.953125 132.390625 C 75.464844 132.050781 76 131.761719 76.566406 131.527344 C 77.128906 131.292969 77.710938 131.117188 78.3125 130.996094 C 78.910156 130.878906 79.515625 130.816406 80.128906 130.816406 L 120.820312 130.816406 C 121.429688 130.816406 122.035156 130.878906 122.636719 130.996094 C 123.234375 131.117188 123.816406 131.292969 124.382812 131.527344 C 124.945312 131.761719 125.484375 132.050781 125.992188 132.390625 C 126.5 132.730469 126.96875 133.117188 127.402344 133.546875 C 127.835938 133.980469 128.222656 134.453125 128.5625 134.960938 C 128.902344 135.46875 129.1875 136.007812 129.421875 136.570312 C 129.65625 137.136719 129.832031 137.71875 129.949219 138.320312 C 130.070312 138.921875 130.128906 139.527344 130.128906 140.140625 C 130.128906 140.75 130.070312 141.359375 129.949219 141.957031 C 129.832031 142.558594 129.65625 143.140625 129.421875 143.707031 C 129.1875 144.273438 128.902344 144.808594 128.5625 145.316406 C 128.222656 145.828125 127.835938 146.296875 127.402344 146.730469 C 126.96875 147.164062 126.5 147.550781 125.992188 147.890625 C 125.484375 148.230469 124.945312 148.515625 124.382812 148.75 C 123.816406 148.984375 123.234375 149.164062 122.636719 149.28125 C 122.035156 149.402344 121.429688 149.460938 120.820312 149.460938 Z M 120.820312 149.460938 " fill-opacity="1" fill-rule="nonzero"/><path fill="#000000" d="M 42.882812 149.460938 L 28.078125 149.460938 C 27.464844 149.460938 26.859375 149.402344 26.261719 149.28125 C 25.660156 149.164062 25.078125 148.984375 24.515625 148.75 C 23.949219 148.515625 23.414062 148.230469 22.902344 147.890625 C 22.394531 147.550781 21.925781 147.164062 21.492188 146.730469 C 21.0625 146.296875 20.675781 145.828125 20.335938 145.316406 C 19.996094 144.808594 19.707031 144.273438 19.476562 143.707031 C 19.242188 143.140625 19.0625 142.558594 18.945312 141.957031 C 18.824219 141.359375 18.765625 140.75 18.765625 140.140625 C 18.765625 139.527344 18.824219 138.921875 18.945312 138.320312 C 19.0625 137.71875 19.242188 137.136719 19.476562 136.570312 C 19.707031 136.007812 19.996094 135.46875 20.335938 134.960938 C 20.675781 134.453125 21.0625 133.980469 21.492188 133.546875 C 21.925781 133.117188 22.394531 132.730469 22.902344 132.390625 C 23.414062 132.050781 23.949219 131.761719 24.515625 131.527344 C 25.078125 131.292969 25.660156 131.117188 26.261719 130.996094 C 26.859375 130.878906 27.464844 130.816406 28.078125 130.816406 L 42.882812 130.816406 C 43.492188 130.816406 44.097656 130.878906 44.699219 130.996094 C 45.296875 131.117188 45.882812 131.292969 46.445312 131.527344 C 47.011719 131.761719 47.546875 132.050781 48.054688 132.390625 C 48.5625 132.730469 49.035156 133.117188 49.464844 133.546875 C 49.898438 133.980469 50.285156 134.453125 50.625 134.960938 C 50.964844 135.46875 51.25 136.007812 51.484375 136.570312 C 51.71875 137.136719 51.894531 137.71875 52.015625 138.320312 C 52.132812 138.921875 52.195312 139.527344 52.195312 140.140625 C 52.195312 140.75 52.132812 141.359375 52.015625 141.957031 C 51.894531 142.558594 51.71875 143.140625 51.484375 143.707031 C 51.25 144.273438 50.964844 144.808594 50.625 145.316406 C 50.285156 145.828125 49.898438 146.296875 49.464844 146.730469 C 49.035156 147.164062 48.5625 147.550781 48.054688 147.890625 C 47.546875 148.230469 47.011719 148.515625 46.445312 148.75 C 45.882812 148.984375 45.296875 149.164062 44.699219 149.28125 C 44.097656 149.402344 43.492188 149.460938 42.882812 149.460938 Z M 42.882812 149.460938 " fill-opacity="1" fill-rule="nonzero"/><g clip-path="url(#e0e917eda7)"><path fill="#000000" d="M 243.078125 149.460938 L 219.796875 149.460938 C 219.1875 149.460938 218.582031 149.402344 217.980469 149.28125 C 217.382812 149.164062 216.800781 148.984375 216.234375 148.75 C 215.671875 148.515625 215.132812 148.230469 214.625 147.890625 C 214.117188 147.550781 213.648438 147.164062 213.214844 146.730469 C 212.78125 146.296875 212.394531 145.828125 212.054688 145.316406 C 211.71875 144.808594 211.429688 144.273438 211.195312 143.707031 C 210.960938 143.140625 210.785156 142.558594 210.667969 141.957031 C 210.546875 141.359375 210.488281 140.75 210.488281 140.140625 C 210.488281 139.527344 210.546875 138.921875 210.667969 138.320312 C 210.785156 137.71875 210.960938 137.136719 211.195312 136.570312 C 211.429688 136.007812 211.71875 135.46875 212.054688 134.960938 C 212.394531 134.453125 212.78125 133.980469 213.214844 133.546875 C 213.648438 133.117188 214.117188 132.730469 214.625 132.390625 C 215.132812 132.050781 215.671875 131.761719 216.234375 131.527344 C 216.800781 131.292969 217.382812 131.117188 217.980469 130.996094 C 218.582031 130.878906 219.1875 130.816406 219.796875 130.816406 L 235.164062 130.816406 L 242.519531 86.820312 L 210.671875 46.925781 L 179.292969 46.925781 L 161.507812 130.816406 L 182.554688 130.816406 C 183.164062 130.816406 183.769531 130.878906 184.371094 130.996094 C 184.96875 131.117188 185.550781 131.292969 186.117188 131.527344 C 186.679688 131.761719 187.21875 132.050781 187.726562 132.390625 C 188.234375 132.730469 188.703125 133.117188 189.136719 133.546875 C 189.570312 133.980469 189.957031 134.453125 190.296875 134.960938 C 190.636719 135.46875 190.921875 136.007812 191.15625 136.570312 C 191.390625 137.136719 191.566406 137.71875 191.6875 138.320312 C 191.804688 138.921875 191.863281 139.527344 191.863281 140.140625 C 191.863281 140.75 191.804688 141.359375 191.6875 141.957031 C 191.566406 142.558594 191.390625 143.140625 191.15625 143.707031 C 190.921875 144.273438 190.636719 144.808594 190.296875 145.316406 C 189.957031 145.828125 189.570312 146.296875 189.136719 146.730469 C 188.703125 147.164062 188.234375 147.550781 187.726562 147.890625 C 187.21875 148.230469 186.679688 148.515625 186.117188 148.75 C 185.550781 148.984375 184.96875 149.164062 184.371094 149.28125 C 183.769531 149.402344 183.164062 149.460938 182.554688 149.460938 L 149.964844 149.460938 C 149.613281 149.46875 149.261719 149.457031 148.914062 149.425781 C 148.566406 149.394531 148.21875 149.34375 147.875 149.269531 C 147.53125 149.199219 147.195312 149.109375 146.859375 149 C 146.527344 148.890625 146.203125 148.765625 145.882812 148.617188 C 145.5625 148.472656 145.253906 148.308594 144.953125 148.128906 C 144.652344 147.949219 144.363281 147.75 144.085938 147.535156 C 143.808594 147.324219 143.542969 147.09375 143.292969 146.851562 C 143.039062 146.605469 142.800781 146.351562 142.578125 146.078125 C 142.355469 145.808594 142.148438 145.527344 141.957031 145.234375 C 141.765625 144.9375 141.589844 144.636719 141.433594 144.320312 C 141.277344 144.007812 141.136719 143.6875 141.015625 143.359375 C 140.894531 143.027344 140.792969 142.691406 140.710938 142.351562 C 140.625 142.011719 140.5625 141.667969 140.519531 141.320312 C 140.472656 140.96875 140.449219 140.621094 140.445312 140.269531 C 140.441406 139.917969 140.453125 139.570312 140.488281 139.21875 C 140.523438 138.871094 140.578125 138.523438 140.652344 138.183594 L 162.441406 36.207031 C 162.554688 35.679688 162.710938 35.167969 162.910156 34.667969 C 163.113281 34.171875 163.355469 33.691406 163.640625 33.234375 C 163.921875 32.78125 164.246094 32.351562 164.601562 31.949219 C 164.960938 31.546875 165.351562 31.179688 165.773438 30.847656 C 166.195312 30.515625 166.640625 30.21875 167.113281 29.964844 C 167.585938 29.707031 168.078125 29.492188 168.585938 29.324219 C 169.097656 29.152344 169.617188 29.027344 170.148438 28.945312 C 170.679688 28.863281 171.214844 28.832031 171.75 28.84375 L 215.144531 28.285156 C 216.574219 28.277344 217.9375 28.582031 219.230469 29.203125 C 220.519531 29.828125 221.609375 30.699219 222.5 31.824219 L 259.746094 78.433594 C 260.566406 79.453125 261.148438 80.59375 261.488281 81.859375 C 261.828125 83.125 261.898438 84.40625 261.699219 85.703125 L 252.386719 141.628906 C 252.300781 142.179688 252.164062 142.710938 251.980469 143.234375 C 251.796875 143.757812 251.566406 144.261719 251.292969 144.742188 C 251.019531 145.222656 250.707031 145.679688 250.351562 146.105469 C 250 146.53125 249.609375 146.921875 249.1875 147.277344 C 248.761719 147.632812 248.308594 147.949219 247.828125 148.226562 C 247.351562 148.5 246.847656 148.734375 246.328125 148.917969 C 245.804688 149.105469 245.273438 149.242188 244.726562 149.335938 C 244.179688 149.425781 243.628906 149.46875 243.078125 149.460938 Z M 243.078125 149.460938 " fill-opacity="1" fill-rule="nonzero"/></g><g clip-path="url(#7279a37423)"><path fill="#000000" d="M 112.71875 46.925781 L 10.292969 46.925781 C 9.679688 46.925781 9.074219 46.867188 8.476562 46.746094 C 7.875 46.628906 7.292969 46.449219 6.730469 46.214844 C 6.164062 45.980469 5.628906 45.695312 5.121094 45.355469 C 4.609375 45.015625 4.140625 44.628906 3.707031 44.195312 C 3.277344 43.761719 2.890625 43.292969 2.550781 42.785156 C 2.210938 42.273438 1.925781 41.738281 1.691406 41.171875 C 1.457031 40.605469 1.28125 40.023438 1.160156 39.421875 C 1.039062 38.824219 0.980469 38.21875 0.980469 37.605469 C 0.980469 36.992188 1.039062 36.386719 1.160156 35.785156 C 1.28125 35.1875 1.457031 34.601562 1.691406 34.039062 C 1.925781 33.472656 2.210938 32.933594 2.550781 32.425781 C 2.890625 31.917969 3.277344 31.445312 3.707031 31.015625 C 4.140625 30.582031 4.609375 30.195312 5.121094 29.855469 C 5.628906 29.515625 6.164062 29.226562 6.730469 28.992188 C 7.292969 28.757812 7.875 28.582031 8.476562 28.460938 C 9.074219 28.34375 9.679688 28.285156 10.292969 28.285156 L 112.71875 28.285156 C 113.328125 28.285156 113.933594 28.34375 114.535156 28.460938 C 115.132812 28.582031 115.714844 28.757812 116.28125 28.992188 C 116.847656 29.226562 117.382812 29.515625 117.890625 29.855469 C 118.398438 30.195312 118.871094 30.582031 119.300781 31.015625 C 119.734375 31.445312 120.121094 31.917969 120.460938 32.425781 C 120.800781 32.933594 121.085938 33.472656 121.320312 34.039062 C 121.554688 34.601562 121.730469 35.1875 121.851562 35.785156 C 121.96875 36.386719 122.027344 36.992188 122.027344 37.605469 C 122.027344 38.21875 121.96875 38.824219 121.851562 39.421875 C 121.730469 40.023438 121.554688 40.605469 121.320312 41.171875 C 121.085938 41.738281 120.800781 42.273438 120.460938 42.785156 C 120.121094 43.292969 119.734375 43.761719 119.300781 44.195312 C 118.871094 44.628906 118.398438 45.015625 117.890625 45.355469 C 117.382812 45.695312 116.847656 45.980469 116.28125 46.214844 C 115.714844 46.449219 115.132812 46.628906 114.535156 46.746094 C 113.933594 46.867188 113.328125 46.925781 112.71875 46.925781 Z M 112.71875 46.925781 " fill-opacity="1" fill-rule="nonzero"/></g><g clip-path="url(#3973780d22)"><path fill="#000000" d="M 103.40625 74.890625 L 10.292969 74.890625 C 9.679688 74.890625 9.074219 74.832031 8.476562 74.710938 C 7.875 74.589844 7.292969 74.414062 6.730469 74.179688 C 6.164062 73.945312 5.628906 73.660156 5.121094 73.320312 C 4.609375 72.980469 4.140625 72.59375 3.707031 72.160156 C 3.277344 71.726562 2.890625 71.257812 2.550781 70.746094 C 2.210938 70.238281 1.925781 69.703125 1.691406 69.136719 C 1.457031 68.570312 1.28125 67.988281 1.160156 67.386719 C 1.039062 66.785156 0.980469 66.179688 0.980469 65.570312 C 0.980469 64.957031 1.039062 64.351562 1.160156 63.75 C 1.28125 63.148438 1.457031 62.566406 1.691406 62 C 1.925781 61.4375 2.210938 60.898438 2.550781 60.390625 C 2.890625 59.882812 3.277344 59.410156 3.707031 58.976562 C 4.140625 58.542969 4.609375 58.160156 5.121094 57.820312 C 5.628906 57.476562 6.164062 57.191406 6.730469 56.957031 C 7.292969 56.722656 7.875 56.546875 8.476562 56.425781 C 9.074219 56.308594 9.679688 56.246094 10.292969 56.246094 L 103.40625 56.246094 C 104.019531 56.246094 104.625 56.308594 105.222656 56.425781 C 105.824219 56.546875 106.40625 56.722656 106.96875 56.957031 C 107.535156 57.191406 108.070312 57.476562 108.578125 57.820312 C 109.085938 58.160156 109.558594 58.542969 109.992188 58.976562 C 110.421875 59.410156 110.808594 59.882812 111.148438 60.390625 C 111.488281 60.898438 111.773438 61.4375 112.007812 62 C 112.242188 62.566406 112.417969 63.148438 112.539062 63.75 C 112.65625 64.351562 112.71875 64.957031 112.71875 65.570312 C 112.71875 66.179688 112.65625 66.785156 112.539062 67.386719 C 112.417969 67.988281 112.242188 68.570312 112.007812 69.136719 C 111.773438 69.703125 111.488281 70.238281 111.148438 70.746094 C 110.808594 71.257812 110.421875 71.726562 109.992188 72.160156 C 109.558594 72.59375 109.085938 72.980469 108.578125 73.320312 C 108.070312 73.660156 107.535156 73.945312 106.96875 74.179688 C 106.40625 74.414062 105.824219 74.589844 105.222656 74.710938 C 104.625 74.832031 104.019531 74.890625 103.40625 74.890625 Z M 103.40625 74.890625 " fill-opacity="1" fill-rule="nonzero"/></g><g clip-path="url(#93c7c42f9c)"><path fill="#000000" d="M 94.09375 102.855469 L 10.292969 102.855469 C 9.679688 102.855469 9.074219 102.792969 8.476562 102.675781 C 7.875 102.554688 7.292969 102.378906 6.730469 102.144531 C 6.164062 101.910156 5.628906 101.625 5.121094 101.28125 C 4.609375 100.941406 4.140625 100.558594 3.707031 100.125 C 3.277344 99.691406 2.890625 99.21875 2.550781 98.710938 C 2.210938 98.203125 1.925781 97.664062 1.691406 97.101562 C 1.457031 96.535156 1.28125 95.953125 1.160156 95.351562 C 1.039062 94.75 0.980469 94.144531 0.980469 93.53125 C 0.980469 92.921875 1.039062 92.316406 1.160156 91.714844 C 1.28125 91.113281 1.457031 90.53125 1.691406 89.964844 C 1.925781 89.398438 2.210938 88.863281 2.550781 88.355469 C 2.890625 87.84375 3.277344 87.375 3.707031 86.941406 C 4.140625 86.507812 4.609375 86.121094 5.121094 85.78125 C 5.628906 85.441406 6.164062 85.15625 6.730469 84.921875 C 7.292969 84.6875 7.875 84.511719 8.476562 84.390625 C 9.074219 84.269531 9.679688 84.210938 10.292969 84.210938 L 94.09375 84.210938 C 94.707031 84.210938 95.3125 84.269531 95.910156 84.390625 C 96.511719 84.511719 97.09375 84.6875 97.660156 84.921875 C 98.222656 85.15625 98.761719 85.441406 99.269531 85.78125 C 99.777344 86.121094 100.246094 86.507812 100.679688 86.941406 C 101.113281 87.375 101.496094 87.84375 101.835938 88.355469 C 102.175781 88.863281 102.464844 89.398438 102.699219 89.964844 C 102.929688 90.53125 103.109375 91.113281 103.226562 91.714844 C 103.347656 92.316406 103.40625 92.921875 103.40625 93.53125 C 103.40625 94.144531 103.347656 94.75 103.226562 95.351562 C 103.109375 95.953125 102.929688 96.535156 102.699219 97.101562 C 102.464844 97.664062 102.175781 98.203125 101.835938 98.710938 C 101.496094 99.21875 101.113281 99.691406 100.679688 100.125 C 100.246094 100.558594 99.777344 100.941406 99.269531 101.28125 C 98.761719 101.625 98.222656 101.910156 97.660156 102.144531 C 97.09375 102.378906 96.511719 102.554688 95.910156 102.675781 C 95.3125 102.792969 94.707031 102.855469 94.09375 102.855469 Z M 94.09375 102.855469 " fill-opacity="1" fill-rule="nonzero"/></g><path fill="#000000" d="M 196.519531 74.890625 L 168.585938 74.890625 C 167.976562 74.890625 167.367188 74.832031 166.769531 74.710938 C 166.167969 74.589844 165.585938 74.414062 165.023438 74.179688 C 164.457031 73.945312 163.921875 73.660156 163.414062 73.320312 C 162.90625 72.980469 162.433594 72.59375 162 72.160156 C 161.570312 71.726562 161.183594 71.257812 160.84375 70.746094 C 160.503906 70.238281 160.21875 69.703125 159.984375 69.136719 C 159.75 68.570312 159.574219 67.988281 159.453125 67.386719 C 159.335938 66.785156 159.273438 66.179688 159.273438 65.570312 C 159.273438 64.957031 159.335938 64.351562 159.453125 63.75 C 159.574219 63.148438 159.75 62.566406 159.984375 62 C 160.21875 61.4375 160.503906 60.898438 160.84375 60.390625 C 161.183594 59.882812 161.570312 59.410156 162 58.976562 C 162.433594 58.542969 162.90625 58.160156 163.414062 57.820312 C 163.921875 57.476562 164.457031 57.191406 165.023438 56.957031 C 165.585938 56.722656 166.167969 56.546875 166.769531 56.425781 C 167.367188 56.308594 167.976562 56.246094 168.585938 56.246094 L 196.519531 56.246094 C 197.132812 56.246094 197.738281 56.308594 198.335938 56.425781 C 198.9375 56.546875 199.519531 56.722656 200.082031 56.957031 C 200.648438 57.191406 201.183594 57.476562 201.691406 57.820312 C 202.203125 58.160156 202.671875 58.542969 203.105469 58.976562 C 203.535156 59.410156 203.921875 59.882812 204.261719 60.390625 C 204.601562 60.898438 204.890625 61.4375 205.121094 62 C 205.355469 62.566406 205.535156 63.148438 205.652344 63.75 C 205.773438 64.351562 205.832031 64.957031 205.832031 65.570312 C 205.832031 66.179688 205.773438 66.785156 205.652344 67.386719 C 205.535156 67.988281 205.355469 68.570312 205.121094 69.136719 C 204.890625 69.703125 204.601562 70.238281 204.261719 70.746094 C 203.921875 71.257812 203.535156 71.726562 203.105469 72.160156 C 202.671875 72.59375 202.203125 72.980469 201.691406 73.320312 C 201.183594 73.660156 200.648438 73.945312 200.082031 74.179688 C 199.519531 74.414062 198.9375 74.589844 198.335938 74.710938 C 197.738281 74.832031 197.132812 74.890625 196.519531 74.890625 Z M 196.519531 74.890625 " fill-opacity="1" fill-rule="nonzero"/></svg>