<?xml version="1.0" standalone="no"?>
<!DOCTYPE svg PUBLIC "-//W3C//DTD SVG 20010904//EN"
 "http://www.w3.org/TR/2001/REC-SVG-20010904/DTD/svg10.dtd">
<svg version="1.0" xmlns="http://www.w3.org/2000/svg"
 width="1969.000000pt" height="566.000000pt" viewBox="0 0 1969.000000 566.000000"
 preserveAspectRatio="xMidYMid meet">

<g transform="translate(0.000000,566.000000) scale(0.100000,-0.100000)"
fill="#000000" stroke="none">
<path d="M2469 5395 c-3 -2 -39 -5 -80 -6 -91 -1 -224 -23 -302 -49 -31 -11
-66 -20 -77 -20 -67 0 -436 -147 -605 -241 -599 -332 -1034 -775 -1230 -1254
-101 -245 -119 -493 -55 -745 11 -41 56 -160 101 -265 44 -104 82 -201 83
-215 3 -30 30 -83 54 -107 10 -10 45 -54 77 -97 72 -96 218 -259 311 -346 l69
-64 -4 -102 c-2 -63 1 -104 7 -108 18 -11 42 36 42 80 0 23 5 44 10 46 14 4
32 134 25 170 -4 15 -2 35 4 45 10 17 10 17 11 -2 0 -49 23 12 50 139 16 75
45 190 64 254 19 64 54 180 76 257 23 77 54 181 70 230 16 50 48 149 71 220
37 116 92 274 195 562 18 50 41 109 52 130 11 21 25 56 32 78 15 48 63 163
177 425 47 107 103 236 124 285 22 50 68 149 103 220 35 72 78 161 95 200 l32
69 -21 28 -20 27 78 25 c42 13 113 30 157 36 44 7 88 19 98 26 27 18 355 9
450 -12 94 -21 134 -42 184 -96 53 -58 67 -102 61 -197 -7 -101 -38 -176 -141
-333 -95 -146 -183 -253 -352 -427 -147 -152 -591 -574 -778 -741 -143 -127
-430 -400 -458 -435 -23 -29 -36 -76 -29 -105 8 -34 65 -70 109 -70 69 0 231
30 465 85 345 81 672 128 720 103 10 -6 41 -8 67 -6 27 3 49 1 49 -3 0 -5 17
-9 38 -10 34 0 91 -16 67 -19 -5 0 9 -9 32 -19 53 -25 73 -62 73 -139 0 -147
-168 -341 -508 -585 -63 -45 -119 -85 -125 -88 -42 -22 -72 -39 -152 -88 -186
-114 -366 -192 -530 -232 -104 -25 -161 -24 -204 2 l-34 20 5 69 c6 79 -4 84
-22 10 -16 -65 -6 -112 31 -155 36 -41 84 -58 161 -57 100 1 352 81 465 147
23 14 47 25 53 25 6 0 23 11 37 24 14 13 50 36 79 51 30 15 54 31 54 35 0 5
57 48 127 97 70 48 152 112 182 140 30 29 59 53 64 53 5 0 22 11 39 25 16 14
26 25 21 25 -5 0 -15 -6 -23 -12 -8 -7 18 21 58 63 39 42 72 81 72 87 0 14 80
102 93 102 6 0 19 8 29 17 14 12 12 5 -8 -31 -46 -82 -17 -62 43 30 57 88 58
90 62 171 3 75 0 87 -23 127 -84 143 -207 190 -496 190 -224 1 -436 -30 -695
-100 -90 -24 -273 -54 -330 -54 -34 0 -50 -17 211 226 132 123 488 460 564
534 30 29 54 58 52 63 -4 15 28 46 43 41 7 -3 15 4 18 15 3 12 13 21 23 21 18
0 118 100 109 109 -3 2 -13 -4 -22 -15 -10 -10 -27 -26 -38 -34 -11 -8 43 51
120 130 154 159 234 250 321 366 46 61 55 77 43 85 -8 5 -9 9 -3 9 14 0 119
158 133 203 7 20 19 37 26 37 8 0 27 34 44 78 17 42 30 69 31 59 0 -9 -11 -44
-24 -77 -31 -77 -16 -78 21 -2 24 50 28 68 28 147 0 239 -142 360 -445 380
-47 3 -112 8 -146 10 -33 3 -63 3 -65 0z m-562 -171 c-3 -3 -12 -4 -19 -1 -8
3 -5 6 6 6 11 1 17 -2 13 -5z m-23 -46 c-9 -18 -45 -75 -80 -126 -63 -92 -69
-112 -38 -137 10 -8 -5 -47 -62 -170 -212 -452 -452 -1086 -647 -1710 -103
-331 -177 -626 -213 -860 -10 -60 -19 -112 -21 -114 -13 -16 -272 280 -346
394 -90 141 -221 427 -265 580 -51 175 -63 388 -32 533 36 161 121 376 180
451 15 20 42 62 58 93 34 64 118 178 132 178 5 0 30 31 55 69 73 110 394 408
427 396 14 -6 56 31 58 50 1 6 9 8 18 7 9 -2 14 0 9 4 -4 4 11 16 33 26 22 11
38 23 34 29 -3 6 2 9 12 7 11 -2 18 2 17 8 -1 5 7 16 19 23 11 7 17 8 14 2 -4
-7 -1 -8 8 -5 9 3 14 9 11 13 -6 10 57 46 74 43 7 -2 10 1 7 7 -8 13 134 92
155 86 8 -3 56 13 105 36 70 33 278 117 292 119 1 0 -5 -15 -14 -32z m-104 2
c-8 -5 -19 -10 -25 -10 -5 0 -3 5 5 10 8 5 20 10 25 10 6 0 3 -5 -5 -10z
m-200 -85 c-14 -8 -29 -14 -35 -14 -5 0 1 6 15 14 14 8 30 14 35 14 6 0 -1 -6
-15 -14z m140 -513 c0 -5 -7 -17 -15 -28 -14 -18 -14 -17 -4 9 12 27 19 34 19
19z m-80 -89 c-11 -17 -11 -17 -6 0 3 10 6 24 7 30 0 9 2 9 5 0 3 -7 0 -20 -6
-30z m-19 -50 c-12 -20 -14 -14 -5 12 4 9 9 14 11 11 3 -2 0 -13 -6 -23z m-25
-60 c-8 -15 -15 -25 -16 -21 0 12 23 58 27 54 3 -2 -2 -17 -11 -33z m1164 24
c0 -2 -12 -14 -27 -28 l-28 -24 24 28 c23 25 31 32 31 24z m-1186 -79 c-3 -13
-14 -41 -24 -63 -10 -22 -37 -88 -60 -148 -24 -59 -45 -106 -47 -103 -5 4 128
336 134 336 2 0 1 -10 -3 -22z m1068 -55 c-76 -86 -162 -167 -169 -159 -9 8
57 79 104 112 23 16 59 50 79 76 21 26 40 45 42 43 3 -2 -22 -35 -56 -72z
m-1227 -362 c-14 -36 -25 -71 -25 -78 0 -7 -5 -13 -11 -13 -6 0 -9 6 -6 13 52
138 62 164 65 154 1 -7 -9 -41 -23 -76z m-76 -205 c-17 -48 -33 -85 -35 -83
-2 2 11 45 28 97 18 51 33 89 35 83 2 -6 -10 -49 -28 -97z m751 29 c-24 -25
-46 -45 -49 -45 -3 0 15 20 39 45 24 25 46 45 49 45 3 0 -15 -20 -39 -45z
m-76 -66 c-29 -32 -351 -327 -335 -306 7 9 10 17 6 17 -12 0 -124 -98 -249
-220 -66 -63 -109 -101 -97 -83 37 55 381 365 435 393 47 25 80 62 42 47 -38
-15 -1 15 52 42 31 16 79 52 107 80 49 50 76 71 39 30z m-683 -80 c-5 -13 -10
-19 -10 -12 -1 15 10 45 15 40 3 -2 0 -15 -5 -28z m-91 -174 c-29 -86 -54
-155 -56 -152 -3 2 19 75 48 160 28 86 54 155 56 153 2 -2 -20 -74 -48 -161z
m390 -98 c0 -2 -15 -16 -32 -33 l-33 -29 29 33 c28 30 36 37 36 29z m-493
-217 c-27 -83 -52 -149 -54 -146 -6 6 90 296 98 296 3 0 -16 -68 -44 -150z
m353 87 c0 -2 -17 -19 -37 -38 l-38 -34 34 38 c33 34 41 42 41 34z m-80 -80
c0 -2 -17 -19 -37 -38 l-38 -34 34 38 c33 34 41 42 41 34z m630 -22 c-14 -8
-35 -14 -46 -15 -12 0 -72 -11 -134 -25 -62 -14 -118 -24 -124 -22 -24 8 235
72 309 75 17 1 17 -1 -5 -13z m-965 -184 c-4 -17 -10 -33 -14 -36 -5 -2 -3 13
2 35 13 46 22 46 12 1z m-55 -172 c-11 -30 -18 -40 -15 -24 7 36 26 87 31 82
2 -2 -5 -28 -16 -58z m-29 -106 c-8 -15 -10 -15 -11 -2 0 17 10 32 18 25 2 -3
-1 -13 -7 -23z m-14 -55 c-3 -7 -5 -2 -5 12 0 14 2 19 5 13 2 -7 2 -19 0 -25z
m-30 -110 c-3 -8 -6 -5 -6 6 -1 11 2 17 5 13 3 -3 4 -12 1 -19z m1623 -52 c0
-5 -103 -71 -122 -79 -32 -12 -19 1 44 42 57 37 78 47 78 37z m-211 -149 c-2
-1 -13 -9 -24 -17 -19 -14 -19 -14 -6 3 7 9 18 17 24 17 6 0 8 -1 6 -3z m-159
-107 c-28 -21 -109 -67 -99 -56 9 10 113 75 119 76 3 0 -6 -9 -20 -20z m39
-14 c-12 -12 -122 -66 -112 -55 18 18 107 69 112 63 2 -2 2 -6 0 -8z m-184
-75 c-6 -5 -50 -31 -98 -59 -54 -30 -83 -52 -75 -56 7 -3 4 -4 -8 -1 -11 3
-45 -6 -75 -19 -83 -38 -224 -76 -303 -81 l-71 -5 87 15 c128 21 287 77 423
150 125 66 135 71 120 56z m35 -6 c0 -2 -13 -11 -30 -20 -38 -19 -40 -11 -2 9
31 17 32 18 32 11z m-70 -40 c0 -2 -18 -14 -40 -25 -22 -11 -40 -18 -40 -15 0
2 17 13 38 24 42 23 42 23 42 16z"/>
<path d="M1709 3403 l-24 -28 28 24 c25 23 32 31 24 31 -2 0 -14 -12 -28 -27z"/>
<path d="M13698 5395 c-2 -3 -40 -5 -84 -6 -85 -1 -242 -28 -313 -53 -24 -9
-53 -16 -65 -16 -64 -1 -432 -145 -584 -229 -576 -320 -1012 -742 -1213 -1177
-103 -222 -134 -363 -126 -579 6 -192 28 -277 137 -530 45 -104 82 -199 81
-210 0 -11 8 -34 19 -52 43 -74 224 -288 353 -420 l140 -142 -6 -100 c-5 -75
-4 -100 5 -103 21 -7 35 15 42 67 5 28 13 56 19 64 7 8 13 33 14 55 5 121 11
187 18 194 4 4 5 -8 2 -25 -4 -18 -2 -33 3 -33 11 0 22 39 50 175 11 55 24
114 29 130 5 17 21 68 35 115 14 47 50 168 80 270 83 282 188 604 267 820 15
41 43 118 62 170 19 52 46 120 61 150 14 30 26 60 26 66 0 12 45 120 175 419
131 300 168 382 230 505 66 131 115 247 115 272 0 9 -9 24 -21 32 -20 14 -17
16 57 39 44 13 115 30 159 37 44 7 88 18 99 25 26 19 354 11 459 -12 231 -49
305 -225 194 -466 -29 -64 -163 -275 -188 -297 -10 -8 -39 -42 -65 -75 -124
-156 -551 -576 -944 -930 -289 -260 -488 -455 -504 -496 -31 -77 14 -139 101
-139 64 0 218 28 466 86 131 30 290 63 355 74 157 27 342 40 366 28 10 -6 41
-8 67 -6 27 3 49 1 49 -3 0 -5 18 -9 39 -9 22 0 46 -6 53 -13 8 -6 27 -19 42
-27 52 -27 71 -64 71 -138 -1 -76 -20 -121 -90 -212 -57 -74 -202 -212 -300
-286 -104 -78 -254 -184 -261 -184 -3 0 -56 -31 -119 -69 -204 -125 -340 -187
-509 -232 -126 -33 -183 -36 -232 -13 -27 13 -34 23 -39 57 -4 23 -2 55 4 70
13 34 13 37 3 37 -12 0 -32 -70 -32 -112 0 -56 19 -94 58 -122 73 -50 169 -51
330 -2 96 29 245 91 284 118 14 10 31 18 38 18 7 0 26 11 42 26 17 14 52 36
78 49 25 13 52 30 59 39 7 9 70 55 139 103 70 49 142 104 162 124 19 20 54 48
77 62 40 25 62 47 47 47 -4 0 -15 -6 -23 -13 -9 -6 7 10 37 37 29 27 71 76 94
110 54 81 78 106 99 106 10 0 23 8 28 18 23 38 9 1 -16 -44 -25 -46 -25 -48
-4 -29 12 10 43 53 69 94 46 75 47 77 47 161 0 82 -1 87 -36 135 -71 99 -158
142 -336 166 -182 24 -491 -9 -806 -87 -131 -33 -305 -63 -369 -64 -29 0 19
47 441 439 91 85 209 196 261 247 52 51 104 100 115 108 11 8 17 18 13 21 -14
14 13 45 38 45 19 0 25 4 21 14 -6 16 16 40 27 29 7 -8 66 46 66 60 0 6 -10 2
-22 -9 -13 -10 50 56 139 148 89 92 180 191 202 220 22 29 68 89 101 132 41
53 57 82 49 86 -7 5 -8 10 -1 14 18 11 113 156 124 189 6 18 22 42 35 54 13
12 26 36 29 53 4 16 10 30 15 30 5 0 9 10 9 23 0 12 5 29 11 37 16 23 0 -45
-22 -98 -23 -52 -23 -58 -5 -43 32 27 60 115 60 191 0 221 -129 348 -386 379
-98 12 -264 21 -270 16z m-568 -179 c0 -7 -36 -68 -80 -134 -81 -121 -92 -148
-65 -158 8 -4 15 -11 15 -16 0 -5 -37 -89 -81 -186 -171 -371 -315 -735 -468
-1181 -208 -604 -311 -967 -366 -1281 -14 -85 -29 -166 -31 -179 -5 -23 -11
-19 -85 55 -93 92 -209 232 -268 323 -89 138 -218 421 -265 581 -40 135 -56
351 -37 487 21 142 130 432 183 485 9 9 32 46 49 80 34 68 86 139 147 203 22
22 47 54 57 70 33 54 112 139 217 232 116 103 216 184 205 166 -16 -25 9 -12
52 27 24 22 47 40 52 40 5 0 9 4 9 9 0 5 11 12 25 15 14 4 24 12 22 19 -1 7 6
11 16 9 10 -2 16 2 15 10 -2 6 4 13 12 14 37 3 41 5 36 13 -6 10 41 44 61 44
7 0 10 4 8 8 -6 9 150 91 158 83 3 -4 75 24 160 60 84 36 171 72 193 80 21 8
38 19 37 25 -2 6 2 11 7 11 6 0 10 -6 10 -14z m-120 -35 c-8 -5 -26 -11 -40
-15 -21 -5 -20 -3 5 9 32 15 60 20 35 6z m-190 -81 c-19 -11 -39 -19 -45 -19
-5 0 6 8 25 19 19 11 40 19 45 19 6 0 -6 -8 -25 -19z m112 -552 c-8 -8 -9 -4
-5 13 4 13 8 18 11 10 2 -7 -1 -18 -6 -23z m-62 -45 c-11 -17 -11 -17 -6 0 3
10 6 24 7 30 0 9 2 9 5 0 3 -7 0 -20 -6 -30z m-41 -107 c-18 -42 -34 -75 -36
-73 -1 2 11 38 29 80 17 42 33 75 35 73 2 -2 -10 -38 -28 -80z m1171 30 c0 -2
-8 -10 -17 -17 -16 -13 -17 -12 -4 4 13 16 21 21 21 13z m-102 -118 c-83 -94
-198 -206 -198 -192 0 5 22 30 48 56 26 25 85 85 131 132 46 47 86 86 88 86 2
0 -29 -37 -69 -82z m-1126 -55 c-11 -21 -36 -82 -57 -136 -20 -54 -39 -96 -42
-94 -2 3 22 69 53 148 32 79 59 138 61 132 2 -6 -4 -29 -15 -50z m-127 -336
c-15 -39 -29 -78 -31 -86 -3 -8 -7 -11 -11 -8 -3 3 10 47 28 97 19 50 35 86
37 80 2 -5 -8 -43 -23 -83z m-75 -199 c-16 -44 -33 -84 -36 -87 -4 -3 -5 1 -2
9 3 8 15 48 28 88 13 39 27 72 32 72 4 0 -6 -37 -22 -82z m690 -33 c-41 -41
-77 -75 -79 -75 -3 0 28 34 69 75 41 41 77 75 79 75 3 0 -28 -34 -69 -75z
m-100 -89 c0 -2 -51 -50 -112 -107 -62 -57 -104 -93 -94 -81 11 12 15 22 9 22
-12 0 -55 -45 -48 -51 2 -3 -17 -25 -43 -50 -30 -28 -36 -32 -17 -10 17 18 25
32 18 30 -19 -6 -219 -187 -280 -253 -31 -33 -51 -51 -45 -39 11 19 296 296
371 359 19 16 54 40 79 54 25 14 48 32 50 39 3 10 0 11 -9 5 -12 -6 -11 -5 0
10 8 9 34 26 57 36 24 11 46 24 49 30 6 10 15 14 15 6z m-649 -37 c-5 -13 -10
-19 -10 -12 -1 15 10 45 15 40 3 -2 0 -15 -5 -28z m-60 -189 c-22 -63 -40
-109 -40 -101 -1 17 73 234 76 224 2 -5 -15 -60 -36 -123z m-81 -251 c-22 -68
-45 -131 -51 -139 -13 -18 -16 -26 41 143 23 71 44 127 46 125 2 -3 -14 -60
-36 -129z m390 108 c0 -2 -15 -16 -32 -33 l-33 -29 29 33 c28 30 36 37 36 29z
m-80 -81 c0 -2 -8 -10 -17 -17 -16 -13 -17 -12 -4 4 13 16 21 21 21 13z m-40
-39 c0 -2 -17 -19 -37 -38 l-38 -34 34 38 c33 34 41 42 41 34z m620 -21 c-40
-15 -323 -76 -328 -71 -11 11 280 83 338 84 21 0 20 -2 -10 -13z m-385 -76
c-27 -12 -43 -12 -25 0 8 5 22 9 30 9 10 0 8 -3 -5 -9z m-575 -110 c-15 -57
-21 -46 -7 14 6 27 13 44 15 38 2 -6 -2 -29 -8 -52z m-55 -180 c-22 -67 -29
-60 -9 9 9 29 18 50 21 47 3 -2 -3 -28 -12 -56z m1886 -3 c-10 -9 -11 -8 -5 6
3 10 9 15 12 12 3 -3 0 -11 -7 -18z m-1917 -104 c-4 -21 -11 -45 -15 -53 -9
-15 -8 -3 6 65 9 40 17 29 9 -12z m1576 -207 c0 -8 -98 -74 -121 -81 -17 -5
-13 1 17 23 51 38 104 67 104 58z m-248 -178 c-6 -7 -25 -22 -44 -32 -39 -23
-32 -13 14 20 38 26 45 29 30 12z m-112 -73 c0 -8 -92 -65 -104 -65 -6 0 14
16 44 35 59 37 60 38 60 30z m35 -15 c-4 -6 -30 -22 -58 -36 -57 -29 -54 -21
8 20 41 27 61 33 50 16z m-185 -80 c-49 -39 -307 -160 -394 -185 -49 -14 -121
-27 -160 -30 l-71 -5 81 14 c153 25 335 94 489 184 78 46 92 51 55 22z m70 15
c0 -2 -13 -11 -30 -20 -38 -19 -40 -11 -2 9 31 17 32 18 32 11z m-70 -40 c0
-2 -13 -11 -30 -20 -38 -19 -40 -11 -2 9 31 17 32 18 32 11z m-90 -50 c0 -6
-56 -35 -67 -35 -4 1 8 9 27 20 39 22 40 22 40 15z"/>
<path d="M12889 3363 c-13 -16 -12 -17 4 -4 16 13 21 21 13 21 -2 0 -10 -8
-17 -17z"/>
<path d="M4423 4662 c-17 -2 -37 -31 -81 -115 -109 -205 -257 -549 -248 -574
3 -7 12 -13 21 -13 8 0 15 -3 15 -7 0 -4 -38 -122 -84 -263 -101 -303 -153
-483 -246 -839 -88 -341 -86 -330 -58 -363 35 -42 70 -45 103 -11 34 36 44 55
98 193 130 335 405 783 539 880 22 17 47 30 54 30 30 0 46 -100 55 -346 7
-207 11 -249 29 -297 22 -58 58 -97 91 -97 16 0 17 3 7 28 -7 16 -14 137 -18
307 -6 259 -8 284 -29 335 -39 96 -97 136 -179 123 -30 -5 -53 -22 -119 -90
-46 -46 -83 -89 -83 -95 0 -7 32 23 71 65 40 42 80 77 90 77 10 0 21 5 24 10
3 6 14 10 23 9 14 0 14 -2 2 -6 -22 -8 -100 -85 -100 -99 0 -7 -7 -14 -15 -18
-8 -3 -15 -11 -15 -18 0 -7 -14 -26 -30 -42 -55 -54 -197 -275 -206 -319 -2
-11 -11 -27 -19 -36 -16 -16 -50 -69 -112 -179 -49 -85 -40 -55 17 58 28 55
50 104 50 109 0 13 73 142 143 249 33 51 57 95 55 98 -8 8 -164 -237 -255
-401 -46 -82 -83 -145 -83 -139 0 38 161 586 256 869 71 213 217 624 245 690
42 96 70 186 64 204 -7 22 -42 38 -72 33z m-334 -1081 c-7 -23 -14 -39 -16
-37 -3 2 1 23 8 45 7 23 14 39 16 37 3 -2 -1 -23 -8 -45z m-68 -222 c-6 -16
-10 -18 -10 -7 -1 22 12 55 16 42 2 -6 -1 -22 -6 -35z m-36 -124 c-13 -44 -24
-73 -24 -64 -1 9 3 29 9 45 5 16 14 49 21 74 6 25 13 41 15 35 2 -5 -7 -46
-21 -90z m-34 -126 c-6 -16 -10 -18 -10 -7 -1 22 12 55 16 42 2 -6 -1 -22 -6
-35z m-22 -83 c-6 -26 -14 -44 -17 -42 -2 3 1 26 8 51 17 59 24 52 9 -9z m-45
-170 c-15 -59 -29 -105 -31 -103 -2 3 5 40 15 83 11 44 23 92 26 108 4 15 9
26 12 23 3 -2 -7 -52 -22 -111z m-54 -193 c-11 -17 -11 -17 -6 0 3 10 6 24 7
30 0 9 2 9 5 0 3 -7 0 -20 -6 -30z"/>
<path d="M2469 4054 c-12 -14 -11 -16 5 -13 11 2 21 10 24 17 5 17 -13 15 -29
-4z"/>
<path d="M13700 4055 c-20 -24 -6 -28 15 -5 10 11 13 20 8 20 -6 0 -16 -7 -23
-15z"/>
<path d="M13646 3999 c-11 -10 -15 -19 -9 -19 5 0 18 9 28 20 23 26 6 25 -19
-1z"/>
<path d="M2265 3850 c-3 -5 -1 -10 4 -10 6 0 11 5 11 10 0 6 -2 10 -4 10 -3 0
-8 -4 -11 -10z"/>
<path d="M13490 3850 c0 -5 5 -10 10 -10 6 0 10 5 10 10 0 6 -4 10 -10 10 -5
0 -10 -4 -10 -10z"/>
<path d="M6291 3798 c-130 -64 -335 -351 -446 -623 -42 -103 -65 -137 -141
-205 l-39 -35 30 35 c17 19 41 51 55 70 l24 35 -50 -43 c-252 -220 -427 -312
-595 -312 -135 0 -159 21 -159 137 0 60 31 197 49 216 4 4 25 0 47 -9 79 -33
192 5 283 96 88 88 181 284 181 382 0 63 -11 83 -62 109 -46 23 -104 26 -168
9 -121 -32 -334 -349 -407 -602 -58 -205 4 -363 164 -413 171 -54 419 39 657
247 28 24 47 36 44 27 -4 -10 -12 -46 -19 -80 -7 -35 -18 -69 -25 -76 -11 -12
-35 -128 -49 -241 -5 -40 -3 -58 9 -77 9 -13 16 -33 16 -43 0 -28 56 -51 75
-31 18 19 193 416 270 613 72 185 160 451 169 513 5 35 2 46 -15 62 l-21 20
20 28 c36 50 121 124 168 145 64 28 88 19 111 -39 20 -53 23 -134 11 -318 -6
-89 -5 -101 4 -65 6 25 16 65 24 90 12 43 13 44 13 12 1 -45 -41 -233 -85
-382 -20 -69 -44 -153 -53 -187 -9 -37 -20 -63 -28 -63 -7 0 -13 -8 -13 -17 0
-16 2 -16 11 -3 8 12 9 10 5 -10 -4 -14 -12 -46 -18 -72 -6 -27 -15 -48 -20
-48 -15 0 -8 72 11 129 24 67 43 137 47 172 2 14 10 38 19 55 8 16 15 39 15
52 0 13 13 51 29 85 41 89 50 170 14 125 -12 -15 -59 -160 -98 -298 -79 -280
-81 -311 -31 -365 29 -30 38 -35 54 -26 26 14 88 89 152 186 60 91 75 109 64
80 -4 -11 53 38 128 108 74 70 150 139 169 153 41 32 148 84 170 84 29 0 40
-26 64 -158 26 -145 43 -186 107 -254 56 -61 98 -65 153 -17 30 27 89 131 121
217 7 18 10 9 11 -37 2 -86 17 -123 73 -175 50 -47 68 -52 145 -47 54 4 114
42 221 138 l104 94 0 -45 c0 -64 50 -130 102 -134 64 -5 146 53 205 145 35 56
40 69 21 57 -7 -4 -2 7 11 24 24 34 37 42 27 16 -3 -9 -2 -12 5 -9 5 4 7 14 5
23 -4 11 17 44 59 94 36 42 65 79 65 82 0 3 9 15 20 26 17 17 28 60 15 60 -2
0 -45 -52 -95 -115 -51 -63 -94 -115 -96 -115 -3 0 7 16 22 35 15 20 34 49 43
65 9 16 68 91 131 167 96 116 116 134 118 115 2 -14 -4 -30 -15 -38 -17 -14
-17 -14 3 -5 26 12 34 6 34 -26 0 -30 51 -83 79 -83 34 0 43 32 30 104 -13 68
-4 111 27 137 21 17 18 -63 -6 -196 -22 -119 -24 -141 -9 -110 7 15 8 10 4
-20 -15 -115 -17 -199 -5 -275 12 -76 17 -87 62 -141 60 -72 72 -79 143 -79
73 0 117 21 163 78 72 89 104 121 115 119 7 -1 12 6 12 15 0 10 7 23 15 30 12
11 12 10 0 -7 -14 -19 -14 -19 3 -6 9 8 15 16 13 18 -2 3 13 28 35 56 21 29
38 61 37 72 -2 15 2 19 17 17 11 -2 24 -7 29 -12 4 -5 -10 -63 -32 -132 -75
-227 -74 -220 -45 -257 13 -17 28 -29 33 -26 5 3 11 1 15 -5 3 -5 14 -10 24
-10 14 0 22 15 34 63 39 156 93 303 158 437 70 141 74 148 183 258 61 61 119
112 128 112 11 0 21 -13 27 -38 11 -41 10 -271 -1 -244 -6 15 -7 14 -8 -3 -2
-57 -21 -210 -35 -280 -28 -149 -19 -195 47 -255 78 -72 160 -58 256 44 55 60
112 147 133 204 9 25 7 25 -22 -8 -17 -19 -46 -52 -65 -72 -43 -49 -53 -31
-14 24 17 24 71 99 121 167 49 68 89 126 90 130 0 3 2 14 4 24 2 9 -1 15 -6
11 -5 -3 -9 -12 -9 -20 0 -20 -157 -237 -267 -368 -42 -51 -120 -106 -149
-106 -18 0 -23 7 -28 38 -7 39 -3 77 39 357 29 198 31 290 7 359 -20 59 -54
86 -114 93 -61 7 -116 -23 -197 -106 -56 -58 -62 -63 -55 -36 4 17 8 55 9 85
0 53 -1 55 -34 71 -19 9 -43 14 -53 11 -35 -9 -208 -381 -208 -447 0 -13 -11
-37 -25 -54 -14 -16 -28 -40 -30 -52 -3 -13 -18 -37 -35 -54 -16 -17 -30 -35
-30 -41 0 -5 -16 -24 -35 -43 -38 -35 -44 -34 -19 4 24 37 12 31 -52 -25 -84
-73 -155 -111 -211 -113 -42 -2 -49 1 -69 31 -45 66 -44 177 7 440 33 176 36
239 12 289 -33 71 -116 92 -169 42 l-23 -21 -30 21 c-48 35 -129 47 -203 32
-89 -18 -128 -41 -199 -120 -65 -71 -132 -171 -132 -196 0 -8 -4 -12 -8 -10
-9 6 -21 -24 -14 -35 3 -5 0 -12 -6 -16 -8 -5 -9 -3 -4 6 6 9 4 11 -4 6 -7 -5
-10 -14 -7 -22 3 -8 1 -14 -4 -14 -5 0 -18 -17 -29 -37 -11 -21 -48 -66 -83
-99 -195 -190 -337 -294 -402 -294 -34 0 -40 26 -33 153 6 124 56 300 119 419
46 86 44 102 -17 114 -46 8 -71 -11 -115 -93 -20 -37 -52 -94 -69 -125 -30
-54 -34 -87 -9 -72 16 10 1 -56 -17 -76 -17 -19 -20 -34 -5 -25 6 3 10 -1 10
-9 0 -8 -4 -17 -9 -21 -6 -3 -20 -26 -33 -51 -36 -72 -46 -69 -20 6 7 21 -5 8
-36 -38 -66 -98 -125 -162 -149 -162 -33 0 -46 35 -72 193 -24 149 -50 205
-109 233 -48 23 -132 24 -163 1 -13 -9 -46 -32 -74 -50 -108 -72 -280 -240
-434 -422 -18 -22 -31 -32 -27 -22 22 65 129 456 152 554 34 146 38 313 10
377 -55 128 -166 178 -275 124z m-31 -51 c0 -2 -10 -12 -22 -23 l-23 -19 19
23 c18 21 26 27 26 19z m-113 -119 c-35 -46 -82 -110 -105 -144 -39 -58 -159
-288 -182 -348 -6 -16 -13 -26 -16 -23 -10 10 124 275 189 375 60 92 162 222
173 222 3 0 -24 -37 -59 -82z m-714 -82 c-17 -93 -108 -259 -182 -335 -25 -26
-67 -57 -92 -69 -50 -24 -119 -30 -119 -9 0 17 114 222 156 279 39 52 143 151
189 179 27 17 31 18 42 3 7 -10 9 -30 6 -48z m3255 2 c31 -40 25 -55 -56 -150
-43 -51 -134 -163 -203 -248 -150 -187 -242 -283 -247 -257 -8 43 96 276 179
399 60 88 183 207 249 240 63 32 64 32 78 16z m-3548 -77 c0 -5 -9 -19 -21
-32 l-20 -24 17 33 c19 33 24 38 24 23z m926 -53 c-66 -173 -69 -178 -97 -192
-16 -8 -29 -12 -29 -10 0 14 139 264 146 264 2 0 -7 -28 -20 -62z m-978 -37
c-7 -12 -16 -21 -21 -21 -4 0 0 11 10 24 22 29 30 27 11 -3z m-34 -55 c-3 -9
-10 -16 -15 -16 -6 0 -5 9 1 21 13 24 24 20 14 -5z m-49 -95 c-19 -38 -39 -72
-45 -76 -15 -10 -12 12 5 29 8 8 15 21 15 29 0 8 7 20 15 27 8 7 15 21 15 30
0 15 8 23 28 29 1 1 -13 -30 -33 -68z m3872 27 c-3 -7 -5 -2 -5 12 0 14 2 19
5 13 2 -7 2 -19 0 -25z m-3849 -43 c-37 -74 -50 -82 -16 -9 26 55 37 74 43 74
3 0 -10 -29 -27 -65z m1892 -31 c-90 -51 -274 -222 -394 -364 -31 -37 -35 -40
-22 -14 41 84 291 329 386 379 61 32 86 31 30 -1z m3147 -46 c-3 -8 -6 -5 -6
6 -1 11 2 17 5 13 3 -3 4 -12 1 -19z m-4147 -77 c-11 -34 -20 -69 -20 -77 0
-16 -111 -286 -116 -281 -5 4 62 275 81 327 14 38 63 105 71 97 2 -2 -6 -31
-16 -66z m103 49 c-3 -12 -8 -19 -11 -16 -5 6 5 36 12 36 2 0 2 -9 -1 -20z
m847 5 c-7 -9 -27 -25 -44 -36 -24 -16 -22 -12 9 15 43 38 55 46 35 21z m3176
-160 c-9 -58 -16 -128 -16 -155 0 -55 -10 -64 -28 -25 -15 32 -15 42 -1 124 8
46 14 60 19 47 4 -13 12 15 21 75 7 52 15 82 17 67 2 -15 -4 -75 -12 -133z
m-1986 79 c-30 -30 -82 -78 -115 -106 -33 -28 -10 -3 50 55 118 114 154 142
65 51z m108 31 c-6 -14 -13 -23 -15 -21 -5 5 15 46 22 46 3 0 -1 -11 -7 -25z
m1282 21 c0 -2 -8 -10 -17 -17 -16 -13 -17 -12 -4 4 13 16 21 21 21 13z
m-4520 -37 c0 -6 -4 -7 -10 -4 -5 3 -10 11 -10 16 0 6 5 7 10 4 6 -3 10 -11
10 -16z m-17 -59 c-5 -28 -8 -31 -13 -15 -4 11 -3 28 2 38 14 27 19 16 11 -23z
m1066 1 c-6 -18 -13 -30 -15 -28 -2 2 1 18 7 36 6 18 13 30 15 28 2 -2 -1 -18
-7 -36z m-1044 -21 c-9 -41 -17 -33 -9 9 4 17 9 30 11 27 3 -2 2 -19 -2 -36z
m854 -61 c-21 -74 -38 -111 -25 -54 14 63 37 137 41 133 3 -2 -5 -38 -16 -79z
m641 44 c-11 -17 -11 -17 -6 0 3 10 6 24 7 30 0 9 2 9 5 0 3 -7 0 -20 -6 -30z
m1698 -6 c-11 -37 -28 -50 -28 -21 0 14 32 65 37 60 1 -1 -3 -19 -9 -39z
m-1428 19 c0 -2 -8 -10 -17 -17 -16 -13 -17 -12 -4 4 13 16 21 21 21 13z
m-1803 -48 c-3 -7 -5 -2 -5 12 0 14 2 19 5 13 2 -7 2 -19 0 -25z m1010 -41
c-27 -10 -30 -4 -16 27 l12 26 12 -23 c9 -19 8 -23 -8 -30z m726 19 c-10 -13
-20 -22 -22 -20 -4 4 29 44 36 44 2 0 -4 -11 -14 -24z m1474 -18 c-3 -8 -6 -5
-6 6 -1 11 2 17 5 13 3 -3 4 -12 1 -19z m-1705 -30 c-8 -8 -9 -4 -5 13 4 13 8
18 11 10 2 -7 -1 -18 -6 -23z m-645 -50 c-3 -8 -6 -5 -6 6 -1 11 2 17 5 13 3
-3 4 -12 1 -19z m-10 -50 c-3 -7 -5 -2 -5 12 0 14 2 19 5 13 2 -7 2 -19 0 -25z
m109 -45 c-8 -15 -15 -22 -16 -15 0 14 22 53 28 47 2 -2 -3 -16 -12 -32z m-45
-100 c-12 -20 -14 -14 -5 12 4 9 9 14 11 11 3 -2 0 -13 -6 -23z m-25 -60 c-8
-15 -15 -25 -16 -21 0 12 23 58 27 54 3 -2 -2 -17 -11 -33z m-32 -68 c-4 -8
-8 -15 -10 -15 -2 0 -4 7 -4 15 0 8 4 15 10 15 5 0 7 -7 4 -15z"/>
<path d="M10012 2895 c0 -16 2 -22 5 -12 2 9 2 23 0 30 -3 6 -5 -1 -5 -18z"/>
<path d="M10011 2834 c0 -11 3 -14 6 -6 3 7 2 16 -1 19 -3 4 -6 -2 -5 -13z"/>
<path d="M7827 3692 c-20 -22 -22 -73 -5 -90 33 -33 108 3 108 51 0 50 -70 76
-103 39z"/>
<path d="M16110 3625 c-101 -22 -188 -51 -229 -77 -11 -6 -29 -29 -41 -50 -20
-36 -21 -40 -6 -63 21 -31 31 -31 69 1 40 34 129 78 199 98 69 20 247 48 259
40 15 -9 -26 -76 -93 -151 -34 -40 -132 -145 -217 -235 -215 -227 -320 -371
-323 -442 -1 -19 7 -53 16 -75 20 -42 40 -51 121 -51 95 0 303 98 443 209 67
54 61 65 -7 15 -29 -20 -54 -34 -58 -31 -3 4 -14 2 -24 -4 -11 -5 -19 -6 -19
-2 0 11 80 63 96 63 6 0 18 7 25 17 13 14 12 15 -6 5 -47 -26 -324 -151 -365
-165 -65 -21 -127 -30 -145 -20 -33 19 84 168 344 438 291 302 344 394 268
466 -12 11 -32 25 -45 30 -39 15 -152 8 -262 -16z m90 -328 c0 -1 -24 -25 -52
-52 l-53 -50 50 53 c46 48 55 57 55 49z m-76 -119 c-51 -55 -217 -240 -258
-288 -21 -25 -34 -38 -30 -30 13 25 90 124 113 144 11 11 21 24 21 29 0 6 -14
-2 -32 -19 -18 -16 -5 3 29 41 34 39 78 86 100 105 21 19 13 8 -18 -25 -92
-99 -88 -106 7 -12 88 87 125 116 68 55z m-330 -393 c-9 -14 -18 -25 -21 -25
-5 0 5 18 20 38 17 22 18 13 1 -13z"/>
<path d="M18048 3639 c-10 -5 -18 -15 -18 -21 0 -5 -27 -71 -61 -144 -34 -74
-63 -152 -66 -174 -5 -36 -3 -40 16 -40 12 0 21 -6 21 -15 0 -24 -36 -90 -71
-129 -17 -20 -28 -40 -25 -45 9 -13 -114 -164 -149 -183 -19 -10 -19 -10 1 13
56 64 41 63 -32 -1 -76 -66 -151 -109 -206 -116 -40 -6 -47 -4 -66 20 -51 66
-52 193 -1 451 35 182 37 254 8 302 -40 65 -115 79 -165 32 l-23 -21 -30 21
c-48 35 -129 47 -203 32 -34 -7 -78 -21 -97 -31 -59 -30 -165 -151 -214 -242
-14 -26 -34 -60 -46 -76 -24 -35 -29 -55 -5 -26 14 18 15 18 4 -3 -6 -13 -15
-23 -20 -23 -5 0 -17 -14 -26 -31 -9 -18 -11 -28 -4 -24 9 6 9 2 1 -13 -6 -11
-16 -22 -22 -24 -6 -2 -12 -16 -12 -31 -1 -15 -5 -27 -9 -27 -11 0 -30 -69
-22 -81 4 -8 3 -9 -4 -5 -7 4 -13 -7 -18 -29 -16 -88 32 -177 99 -183 64 -6
144 52 211 153 28 42 33 61 15 49 -7 -4 -1 7 12 25 25 34 35 40 25 15 -3 -9
-2 -12 5 -9 5 4 7 14 5 23 -4 11 17 44 59 94 36 42 65 79 65 82 0 3 9 15 20
26 17 17 28 60 16 60 -3 0 -51 -58 -107 -130 -56 -71 -104 -130 -107 -130 -2
0 7 15 22 33 14 17 39 53 54 79 16 26 80 109 143 185 95 116 115 134 117 115
2 -14 -4 -30 -15 -38 -17 -14 -17 -14 3 -5 26 12 34 6 34 -26 0 -30 51 -83 79
-83 34 0 43 31 30 109 -11 66 -10 71 12 108 l24 38 3 -53 c2 -30 -6 -102 -17
-161 -23 -117 -25 -137 -10 -106 7 14 8 8 4 -25 -16 -131 -17 -195 -5 -270 12
-75 17 -86 62 -141 61 -73 72 -79 143 -79 73 0 117 21 163 78 68 83 105 123
110 117 3 -2 11 0 19 6 16 14 16 13 -2 -58 -22 -85 -20 -138 7 -163 24 -22 59
-35 78 -28 18 6 138 334 180 487 13 51 68 117 154 186 75 61 132 93 213 119
61 20 75 41 32 50 -57 11 -171 -21 -275 -79 l-62 -33 14 61 c8 34 19 75 24 91
16 46 12 74 -12 90 -26 18 -55 20 -80 5z m-940 -91 c31 -39 25 -56 -55 -151
-43 -51 -134 -162 -203 -247 -156 -193 -243 -283 -248 -256 -10 48 116 311
208 434 69 94 149 168 221 204 62 32 63 32 77 16z m972 -262 c0 -2 -8 -10 -17
-17 -16 -13 -17 -12 -4 4 13 16 21 21 21 13z m-783 -28 c-3 -8 -6 -5 -6 6 -1
11 2 17 5 13 3 -3 4 -12 1 -19z m-633 -32 c-3 -8 -15 -16 -26 -19 -20 -6 -20
-5 -2 13 23 23 35 25 28 6z m1333 -138 c-3 -8 -6 -5 -6 6 -1 11 2 17 5 13 3
-3 4 -12 1 -19z m-7 -22 c0 -10 -92 -261 -101 -275 -28 -44 31 164 71 252 11
22 30 37 30 23z m-1449 -146 c-18 -52 -19 -53 -19 -20 0 19 8 48 17 63 23 40
24 20 2 -43z"/>
<path d="M14868 3615 c-83 -23 -121 -48 -184 -123 -73 -87 -147 -209 -138
-224 4 -6 3 -8 -3 -5 -6 4 -14 0 -17 -9 -4 -10 -2 -13 7 -8 6 3 -1 -6 -16 -21
-16 -15 -26 -33 -23 -42 4 -9 2 -11 -6 -7 -8 5 -9 2 -5 -9 4 -11 -2 -24 -15
-36 -11 -11 -21 -33 -22 -50 -1 -16 -4 -27 -8 -25 -9 6 -31 -63 -24 -75 4 -5
1 -11 -6 -13 -21 -7 -11 -105 14 -142 31 -43 48 -55 81 -56 45 0 95 26 145 78
47 49 107 143 81 126 -10 -6 -10 -2 2 16 9 14 21 25 27 25 6 0 14 4 19 9 5 5
3 6 -4 2 -24 -13 -12 9 32 64 110 137 135 171 135 187 0 14 -3 14 -21 -3 -12
-10 -57 -65 -101 -121 -45 -57 -83 -103 -86 -103 -2 0 2 8 9 19 8 10 33 46 57
81 91 133 267 333 259 294 -2 -11 2 -29 9 -39 8 -10 14 -28 14 -40 0 -12 13
-34 29 -49 23 -22 36 -27 55 -22 23 6 26 12 26 47 0 22 -5 60 -11 85 -11 41
-10 46 17 81 l29 38 3 -32 c2 -18 -6 -87 -18 -154 -11 -67 -18 -134 -15 -148
3 -14 1 -60 -4 -103 -8 -56 -7 -100 3 -167 15 -97 34 -132 113 -201 34 -31 39
-32 104 -28 56 3 76 9 111 34 24 16 48 41 55 55 7 14 22 34 33 44 20 18 21 18
14 0 -5 -13 -4 -16 5 -11 7 5 10 15 6 24 -6 16 32 65 45 57 4 -2 18 7 30 20
13 14 20 25 16 25 -4 0 8 21 27 48 39 54 51 82 36 82 -6 0 7 21 28 48 43 51
57 72 49 72 -7 0 -116 -136 -116 -145 0 -4 8 -1 18 6 14 12 14 10 -2 -8 -10
-12 -23 -21 -30 -20 -6 1 -10 -5 -8 -14 1 -9 -7 -24 -18 -34 -11 -10 -20 -24
-20 -31 0 -7 -19 -27 -42 -46 -36 -28 -40 -29 -25 -8 31 45 18 41 -45 -12
-125 -106 -224 -142 -266 -100 -53 53 -54 226 -2 482 35 170 35 224 1 282 -37
62 -95 74 -156 33 -35 -24 -39 -25 -56 -10 -46 42 -142 55 -231 30z m169 -92
c13 -32 12 -34 -35 -86 -26 -29 -120 -142 -208 -252 -161 -200 -274 -319 -281
-298 -7 19 36 131 92 242 63 125 135 231 209 304 54 55 170 128 195 124 8 -1
20 -17 28 -34z m170 -300 c-3 -10 -5 -4 -5 12 0 17 2 24 5 18 2 -7 2 -21 0
-30z m-627 2 c-7 -8 -17 -15 -22 -15 -11 0 14 29 26 30 5 0 3 -7 -4 -15z
m-122 -298 c-6 -20 -15 -37 -19 -37 -11 0 1 64 14 72 17 10 17 6 5 -35z"/>
<path d="M3483 3530 c-80 -32 -251 -383 -281 -574 -13 -81 5 -166 43 -206 77
-80 212 2 348 211 174 268 202 436 83 490 -23 10 -51 19 -63 19 -16 0 -20 5
-16 19 10 38 -59 63 -114 41z m182 -131 c6 -17 9 -19 16 -8 6 9 9 0 9 -27 0
-86 -94 -268 -231 -450 -45 -58 -114 -112 -158 -120 -29 -6 -31 -5 -31 22 0
89 47 260 111 402 31 69 45 83 25 25 -17 -49 -11 -63 25 -63 23 0 29 4 29 23
1 12 22 60 48 107 40 71 53 87 82 97 51 17 68 16 75 -8z m25 -163 c-21 -57
-97 -206 -105 -206 -6 0 5 25 36 85 45 86 79 182 81 227 l1 43 4 -44 c3 -29
-3 -66 -17 -105z m-12 -91 c-6 -14 -13 -23 -15 -21 -5 5 15 46 22 46 3 0 -1
-11 -7 -25z m-389 -34 c-6 -18 -13 -30 -15 -28 -2 2 1 18 7 36 6 18 13 30 15
28 2 -2 -1 -18 -7 -36z m362 -24 c-10 -9 -11 -8 -5 6 3 10 9 15 12 12 3 -3 0
-11 -7 -18z m-394 -69 c-3 -8 -6 -5 -6 6 -1 11 2 17 5 13 3 -3 4 -12 1 -19z
m343 -18 c-6 -11 -13 -20 -16 -20 -2 0 0 9 6 20 6 11 13 20 16 20 2 0 0 -9 -6
-20z m-353 -22 c-3 -8 -6 -5 -6 6 -1 11 2 17 5 13 3 -3 4 -12 1 -19z m-15 -60
c-6 -6 -7 0 -4 19 5 21 7 23 10 9 2 -10 0 -22 -6 -28z m324 14 c-17 -16 -18
-16 -5 5 7 12 15 20 18 17 3 -2 -3 -12 -13 -22z"/>
<path d="M15035 3400 c-3 -6 1 -7 9 -4 18 7 21 14 7 14 -6 0 -13 -4 -16 -10z"/>
<path d="M8629 3323 l-24 -28 28 24 c15 14 27 26 27 28 0 8 -8 1 -31 -24z"/>
<path d="M14965 3330 c-10 -11 -16 -22 -13 -25 3 -3 13 4 23 15 10 11 16 22
13 25 -3 3 -13 -4 -23 -15z"/>
<path d="M17054 3328 l-19 -23 23 19 c21 18 27 26 19 26 -2 0 -12 -10 -23 -22z"/>
<path d="M10548 3215 c-16 -52 -42 -102 -84 -164 -13 -20 -24 -40 -24 -46 0
-5 12 8 27 30 14 22 30 42 33 45 22 16 75 151 67 173 -2 6 -11 -10 -19 -38z"/>
<path d="M17805 3040 c-3 -5 -1 -10 4 -10 6 0 11 5 11 10 0 6 -2 10 -4 10 -3
0 -8 -4 -11 -10z"/>
<path d="M9289 2843 c-13 -16 -12 -17 4 -4 9 7 17 15 17 17 0 8 -8 3 -21 -13z"/>
<path d="M17709 2843 c-13 -16 -12 -17 4 -4 16 13 21 21 13 21 -2 0 -10 -8
-17 -17z"/>
<path d="M2770 2555 c-7 -9 -11 -17 -9 -20 3 -2 10 5 17 15 14 24 10 26 -8 5z"/>
<path d="M13989 2543 c-13 -16 -12 -17 4 -4 16 13 21 21 13 21 -2 0 -10 -8
-17 -17z"/>
<path d="M13905 2440 c-3 -5 -2 -10 4 -10 5 0 13 5 16 10 3 6 2 10 -4 10 -5 0
-13 -4 -16 -10z"/>
<path d="M15120 1091 c-138 -42 -243 -220 -243 -411 -1 -143 57 -240 163 -275
91 -30 177 -9 252 62 l36 35 17 -31 c22 -43 70 -71 123 -71 45 0 108 27 133
56 7 9 34 26 59 37 25 12 49 23 54 25 4 3 5 -14 1 -36 -8 -51 8 -84 38 -80 20
3 23 11 30 93 9 113 44 190 99 220 31 16 38 17 53 5 14 -12 15 -29 9 -141 l-7
-127 26 -26 c39 -38 81 -35 123 10 19 19 34 40 34 45 0 18 15 9 35 -21 23 -35
88 -70 129 -70 56 0 111 25 159 71 l48 46 14 -28 c53 -101 200 -115 299 -28
l46 41 0 -29 c0 -16 -7 -82 -15 -147 -9 -64 -13 -126 -10 -137 8 -24 52 -26
59 -1 11 35 36 269 36 337 0 53 6 83 24 121 59 127 190 126 172 -1 -12 -88
-60 -155 -112 -155 -41 0 -69 -33 -53 -63 9 -15 18 -18 47 -14 47 6 181 58
219 85 l30 21 17 -39 c17 -39 63 -70 105 -70 61 0 123 51 166 138 33 67 37
107 11 107 -14 0 -29 -19 -52 -65 -43 -84 -75 -112 -122 -108 -65 5 -72 51
-41 263 l11 75 57 -3 c51 -2 56 0 59 20 3 18 -4 24 -35 32 -21 6 -45 11 -55
11 -14 0 -15 10 -11 78 5 65 3 80 -10 85 -31 12 -52 -18 -57 -84 -5 -61 -6
-63 -38 -71 -27 -7 -33 -13 -30 -31 2 -14 11 -23 26 -25 26 -4 27 -12 8 -133
-14 -92 -34 -132 -82 -164 -26 -17 -27 -17 -19 1 23 54 37 125 31 155 -23 121
-134 153 -232 67 -36 -31 -36 -31 -48 25 -5 20 -12 27 -30 27 -32 0 -34 -9
-28 -110 4 -83 4 -86 -29 -134 -47 -68 -78 -88 -143 -94 -53 -4 -57 -3 -91 31
-19 19 -35 43 -35 54 0 16 9 18 81 18 80 0 81 0 115 37 36 40 44 81 24 132
-22 58 -116 83 -187 49 -43 -20 -90 -83 -99 -132 -9 -53 -54 -130 -91 -158
-35 -27 -96 -39 -138 -29 -60 15 -88 143 -45 213 43 71 112 82 128 20 15 -60
81 -40 67 21 -15 69 -105 102 -180 66 -43 -20 -91 -88 -101 -143 -4 -20 -22
-66 -41 -103 -25 -52 -38 -68 -54 -68 -21 0 -21 2 -14 130 8 151 0 174 -60
186 -48 9 -78 -1 -120 -37 l-35 -31 0 31 c0 35 -22 51 -49 34 -11 -7 -18 -33
-24 -87 -7 -77 -25 -119 -56 -135 -14 -8 -16 0 -16 69 0 64 -4 84 -21 107 -41
57 -133 80 -192 49 -53 -28 -102 -95 -116 -161 -10 -46 -71 -122 -116 -145
-71 -36 -155 -24 -207 32 -89 95 -62 337 51 456 60 64 127 81 167 41 17 -17
20 -28 14 -58 -14 -70 -12 -86 12 -89 25 -4 47 30 58 90 18 94 -83 170 -185
139z m1568 -367 c41 -29 23 -91 -33 -108 -20 -5 -91 7 -103 19 -12 12 31 74
62 89 39 20 46 20 74 0z m-1113 -18 c11 -17 15 -42 13 -88 -3 -54 -6 -63 -22
-63 -30 0 -61 50 -61 99 0 70 39 99 70 52z m-132 -40 c-7 -57 25 -130 66 -154
17 -9 31 -20 31 -24 0 -4 -18 -13 -40 -19 -33 -10 -43 -9 -65 5 -46 30 -59
104 -30 173 14 33 33 63 40 63 1 0 0 -20 -2 -44z"/>
<path d="M17916 1086 c-78 -29 -115 -97 -94 -174 15 -56 42 -87 143 -167 87
-70 125 -118 125 -159 0 -35 -30 -86 -62 -106 -43 -27 -136 -24 -169 6 -36 32
-51 78 -39 126 14 62 12 76 -10 83 -30 9 -47 -9 -60 -65 -17 -70 -5 -124 37
-171 66 -73 186 -88 278 -34 43 25 85 78 85 109 0 33 18 14 23 -25 15 -112
141 -142 227 -54 l33 34 36 -40 c60 -67 148 -66 227 1 25 22 55 40 66 40 40 0
102 78 134 168 29 82 29 82 59 76 16 -3 32 -8 34 -10 2 -2 -8 -30 -22 -61 -37
-83 -43 -134 -22 -188 36 -96 153 -102 215 -12 l24 35 38 -43 c69 -79 189 -81
280 -5 40 33 111 162 101 185 -9 25 -43 17 -54 -12 -21 -56 -70 -120 -108
-141 -73 -41 -160 -21 -187 43 -20 48 -18 58 5 45 34 -18 123 -12 159 10 66
41 78 131 24 183 -54 52 -139 48 -202 -9 -32 -29 -44 -51 -64 -118 -39 -128
-96 -193 -146 -166 -45 24 -39 100 18 211 49 94 44 111 -26 102 -45 -5 -50 -3
-75 27 -36 42 -60 37 -68 -15 -9 -67 -52 -175 -85 -213 l-31 -36 0 70 c1 85
-23 138 -73 166 -102 54 -217 -10 -254 -141 -18 -65 -65 -144 -95 -160 -11 -6
-34 -11 -51 -11 -26 0 -33 6 -46 37 -16 38 -16 63 8 225 l11 78 56 -3 c54 -2
56 -1 56 23 0 22 -6 26 -53 34 -50 9 -53 10 -47 35 11 54 8 123 -5 131 -35 22
-60 -25 -60 -111 0 -34 -3 -39 -24 -39 -28 0 -51 -24 -42 -45 3 -8 15 -15 27
-15 20 0 21 -3 15 -52 -4 -29 -10 -84 -13 -123 -7 -69 -7 -69 -15 -30 -13 59
-49 105 -143 179 -105 84 -125 108 -125 157 0 45 36 79 84 79 49 0 76 -24 76
-69 0 -47 20 -67 49 -51 24 12 29 72 9 115 -25 56 -121 87 -192 61z m1481
-368 c32 -26 3 -92 -45 -101 -40 -8 -102 10 -102 29 0 45 67 99 110 88 14 -3
31 -10 37 -16z m-733 6 c22 -8 39 -79 31 -131 -6 -44 -11 -48 -40 -37 -37 15
-59 110 -35 155 11 20 19 23 44 13z m-112 -60 c-5 -67 10 -105 54 -144 19 -16
34 -32 34 -35 0 -3 -12 -10 -27 -16 -37 -14 -81 -2 -100 27 -21 32 -20 122 2
165 15 29 35 59 39 59 0 0 -1 -25 -2 -56z"/>
</g>
</svg>
