<svg xmlns="http://www.w3.org/2000/svg" xmlns:xlink="http://www.w3.org/1999/xlink" width="349" zoomAndPan="magnify" viewBox="0 0 261.75 374.999991" height="500" preserveAspectRatio="xMidYMid meet" version="1.0"><defs><clipPath id="61ba79e64f"><path d="M 0 0.179688 L 261.5 0.179688 L 261.5 374.429688 L 0 374.429688 Z M 0 0.179688 " clip-rule="nonzero"/></clipPath></defs><g clip-path="url(#61ba79e64f)"><path fill="#000000" d="M 238.632812 340.386719 C 238.625 343.292969 237.460938 345.882812 235.503906 347.855469 C 233.527344 349.8125 230.921875 350.984375 228.003906 350.984375 L 33.753906 350.984375 C 30.820312 350.976562 28.230469 349.8125 26.261719 347.863281 C 24.304688 345.890625 23.140625 343.296875 23.136719 340.386719 L 23.136719 185.039062 C 23.140625 182.128906 24.300781 179.535156 26.261719 177.566406 C 28.230469 175.609375 30.828125 174.445312 33.753906 174.441406 L 228.003906 174.441406 C 230.917969 174.441406 233.519531 175.609375 235.503906 177.566406 C 237.460938 179.546875 238.625 182.140625 238.632812 185.039062 Z M 72.761719 44.042969 C 85.429688 31.410156 102.800781 23.628906 122.109375 23.625 L 139.667969 23.625 C 158.976562 23.628906 176.34375 31.410156 189.011719 44.042969 C 201.652344 56.699219 209.441406 74.050781 209.449219 93.34375 L 209.449219 151.324219 L 52.328125 151.324219 L 52.328125 93.34375 C 52.332031 74.050781 60.113281 56.699219 72.761719 44.042969 Z M 232.585938 151.679688 L 232.585938 93.34375 C 232.574219 42.066406 190.988281 0.515625 139.667969 0.507812 L 122.109375 0.507812 C 70.785156 0.515625 29.195312 42.066406 29.191406 93.34375 L 29.191406 151.675781 C 12.710938 153.933594 0.0390625 167.980469 0 185.039062 L 0 340.386719 C 0.0351562 358.996094 15.101562 374.0625 33.753906 374.097656 L 228.003906 374.097656 C 246.632812 374.054688 261.722656 359.019531 261.769531 340.386719 L 261.769531 185.039062 C 261.722656 167.972656 249.042969 153.949219 232.585938 151.679688 " fill-opacity="1" fill-rule="nonzero"/></g><path fill="#000000" d="M 154.019531 241.523438 C 154.019531 228.753906 143.660156 218.410156 130.886719 218.410156 C 118.109375 218.410156 107.75 228.753906 107.75 241.523438 C 107.75 250.933594 113.402344 259 121.480469 262.605469 L 104.972656 307.011719 L 156.792969 307.011719 L 140.289062 262.605469 C 148.367188 259 154.019531 250.933594 154.019531 241.523438 " fill-opacity="1" fill-rule="nonzero"/></svg>