<svg xmlns="http://www.w3.org/2000/svg" xmlns:xlink="http://www.w3.org/1999/xlink" width="511" zoomAndPan="magnify" viewBox="0 0 383.25 374.999991" height="500" preserveAspectRatio="xMidYMid meet" version="1.0"><defs><clipPath id="a7b0a142bc"><path d="M 59 317 L 117 317 L 117 374.632812 L 59 374.632812 Z M 59 317 " clip-rule="nonzero"/></clipPath><clipPath id="dd9d8628cf"><path d="M 186 317 L 244 317 L 244 374.632812 L 186 374.632812 Z M 186 317 " clip-rule="nonzero"/></clipPath></defs><path fill="#000000" d="M 194.414062 243.304688 L 199.875 174.308594 L 261.484375 174.308594 L 244.597656 243.304688 Z M 45.675781 174.308594 L 107.324219 174.308594 L 112.785156 243.304688 L 62.574219 243.304688 Z M 100.710938 90.816406 L 106.175781 159.8125 L 42.125 159.8125 L 25.226562 90.816406 Z M 185.316406 174.308594 L 179.855469 243.304688 L 127.34375 243.304688 L 121.882812 174.308594 Z M 120.734375 159.8125 L 115.265625 90.816406 L 191.925781 90.816406 L 186.464844 159.8125 Z M 265.046875 159.8125 L 201.023438 159.8125 L 206.480469 90.816406 L 281.9375 90.816406 Z M 381.261719 9.992188 C 380.03125 4.109375 374.210938 0.375 368.382812 1.582031 L 307.015625 14.414062 C 302.914062 15.277344 299.675781 18.410156 298.675781 22.476562 L 287.261719 69.070312 L 11.363281 69.070312 C 8.019531 69.070312 4.867188 70.605469 2.804688 73.230469 C 0.742188 75.855469 0 79.285156 0.792969 82.527344 L 43.464844 256.757812 C 44.65625 261.625 49.019531 265.042969 54.035156 265.042969 L 239.269531 265.042969 L 234.628906 283.992188 L 59.371094 283.992188 C 53.363281 283.992188 48.488281 288.859375 48.488281 294.867188 C 48.488281 300.867188 53.363281 305.734375 59.371094 305.734375 L 243.164062 305.734375 C 248.179688 305.734375 252.546875 302.3125 253.734375 297.445312 L 263.667969 256.886719 C 263.683594 256.839844 263.710938 256.804688 263.722656 256.757812 L 306.398438 82.527344 C 306.414062 82.460938 306.402344 82.394531 306.429688 82.324219 L 318.1875 34.292969 L 372.839844 22.867188 C 378.722656 21.632812 382.492188 15.871094 381.261719 9.992188 " fill-opacity="1" fill-rule="nonzero"/><g clip-path="url(#a7b0a142bc)"><path fill="#000000" d="M 87.910156 317.59375 C 72.152344 317.59375 59.371094 330.359375 59.371094 346.113281 C 59.371094 361.863281 72.152344 374.632812 87.910156 374.632812 C 103.683594 374.632812 116.460938 361.863281 116.460938 346.113281 C 116.460938 330.359375 103.683594 317.59375 87.910156 317.59375 " fill-opacity="1" fill-rule="nonzero"/></g><g clip-path="url(#dd9d8628cf)"><path fill="#000000" d="M 214.984375 317.59375 C 199.222656 317.59375 186.441406 330.359375 186.441406 346.113281 C 186.441406 361.863281 199.222656 374.632812 214.984375 374.632812 C 230.753906 374.632812 243.53125 361.863281 243.53125 346.113281 C 243.53125 330.359375 230.753906 317.59375 214.984375 317.59375 " fill-opacity="1" fill-rule="nonzero"/></g></svg>